<svg width="32" height="31" viewBox="0 0 32 31" fill="none" xmlns="http://www.w3.org/2000/svg">
<path d="M28.332 6.24992H22.1654V3.16659C22.1654 1.47075 20.7779 0.083252 19.082 0.083252H12.9154C11.2195 0.083252 9.83203 1.47075 9.83203 3.16659V6.24992H3.66536C1.96953 6.24992 0.582031 7.63742 0.582031 9.33325V27.8333C0.582031 29.5291 1.96953 30.9166 3.66536 30.9166H28.332C30.0279 30.9166 31.4154 29.5291 31.4154 27.8333V9.33325C31.4154 7.63742 30.0279 6.24992 28.332 6.24992ZM12.9154 3.16659H19.082V6.24992H12.9154V3.16659ZM28.332 27.8333H3.66536V9.33325H28.332V27.8333Z" fill="#03A9F5"/>
<path d="M17.5404 12.4165H14.457V17.0415H9.83203V20.1248H14.457V24.7498H17.5404V20.1248H22.1654V17.0415H17.5404V12.4165Z" fill="#03A9F5"/>
</svg>
