<svg width="20" height="19" viewBox="0 0 20 19" fill="none" xmlns="http://www.w3.org/2000/svg">
<path d="M18 4.5H15V2.5C15 1.96957 14.7893 1.46086 14.4142 1.08579C14.0391 0.710714 13.5304 0.5 13 0.5H7C6.46957 0.5 5.96086 0.710714 5.58579 1.08579C5.21071 1.46086 5 1.96957 5 2.5V4.5H2C1.46957 4.5 0.960859 4.71071 0.585786 5.08579C0.210714 5.46086 0 5.96957 0 6.5V16.5C0 17.0304 0.210714 17.5391 0.585786 17.9142C0.960859 18.2893 1.46957 18.5 2 18.5H18C18.5304 18.5 19.0391 18.2893 19.4142 17.9142C19.7893 17.5391 20 17.0304 20 16.5V6.5C20 5.96957 19.7893 5.46086 19.4142 5.08579C19.0391 4.71071 18.5304 4.5 18 4.5ZM7 2.5H13V4.5H7V2.5ZM14 12.5H11V15.5H9V12.5H6V10.5H9V7.5H11V10.5H14V12.5Z" fill="white"/>
</svg>
