<svg width="29" height="30" viewBox="0 0 29 30" fill="none" xmlns="http://www.w3.org/2000/svg">
<path d="M3.625 1.85107H1.8125V25.4136C1.8125 25.8943 2.00346 26.3553 2.34337 26.6952C2.68328 27.0351 3.1443 27.2261 3.625 27.2261H27.1875V25.4136H3.625V1.85107Z" fill="#3A966C"/>
<path d="M3.625 1.85107H1.8125V25.4136C1.8125 25.8943 2.00346 26.3553 2.34337 26.6952C2.68328 27.0351 3.1443 27.2261 3.625 27.2261H27.1875V25.4136H3.625V1.85107Z" fill="black" fill-opacity="0.2"/>
<path d="M27.1875 8.19482H20.8438V10.0073H24.0972L17.2188 16.8858L13.3309 12.9889C13.2467 12.9039 13.1465 12.8365 13.036 12.7905C12.9256 12.7445 12.8071 12.7208 12.6875 12.7208C12.5679 12.7208 12.4494 12.7445 12.339 12.7905C12.2285 12.8365 12.1283 12.9039 12.0441 12.9889L5.4375 19.6045L6.71531 20.8823L12.6875 14.9101L16.5753 18.807C16.6596 18.892 16.7598 18.9594 16.8702 19.0054C16.9807 19.0514 17.0991 19.0751 17.2188 19.0751C17.3384 19.0751 17.4568 19.0514 17.5673 19.0054C17.6777 18.9594 17.7779 18.892 17.8622 18.807L25.375 11.2851V14.5386H27.1875V8.19482Z" fill="#3A966C"/>
<path d="M27.1875 8.19482H20.8438V10.0073H24.0972L17.2188 16.8858L13.3309 12.9889C13.2467 12.9039 13.1465 12.8365 13.036 12.7905C12.9256 12.7445 12.8071 12.7208 12.6875 12.7208C12.5679 12.7208 12.4494 12.7445 12.339 12.7905C12.2285 12.8365 12.1283 12.9039 12.0441 12.9889L5.4375 19.6045L6.71531 20.8823L12.6875 14.9101L16.5753 18.807C16.6596 18.892 16.7598 18.9594 16.8702 19.0054C16.9807 19.0514 17.0991 19.0751 17.2188 19.0751C17.3384 19.0751 17.4568 19.0514 17.5673 19.0054C17.6777 18.9594 17.7779 18.892 17.8622 18.807L25.375 11.2851V14.5386H27.1875V8.19482Z" fill="black" fill-opacity="0.2"/>
</svg>
