<svg width="18" height="23" viewBox="0 0 18 23" fill="none" xmlns="http://www.w3.org/2000/svg">
<path d="M10.0642 5.68494L10.8092 5.37894C11.4142 5.13894 12.1962 4.89394 13.1192 5.04894C15.0102 5.36694 16.3142 6.38794 17.0912 7.74194C17.3912 8.26394 17.1492 8.95194 16.5892 9.17094C16.1095 9.35861 15.6994 9.68985 15.415 10.1194C15.1306 10.5489 14.9858 11.0558 15.0003 11.5707C15.0149 12.0857 15.1881 12.5836 15.4963 12.9963C15.8045 13.4091 16.2326 13.7167 16.7222 13.8769C17.2402 14.0469 17.5322 14.6219 17.3622 15.1399C16.9202 16.4819 16.2842 17.7209 15.5312 18.7209C14.7872 19.7089 13.8792 20.5289 12.8682 20.9299C12.2082 21.1899 11.5002 21.0929 10.8232 20.9249L10.4212 20.8179L9.82421 20.6449C9.55321 20.5659 9.27421 20.4979 9.00021 20.4979C8.72521 20.4979 8.4472 20.5659 8.1762 20.6449L7.57921 20.8179L7.17721 20.9249C6.50021 21.0929 5.7912 21.1909 5.13221 20.9299C3.85921 20.4259 2.73621 19.2499 1.88721 17.8629C0.969203 16.335 0.362873 14.6404 0.103205 12.8769C-0.123795 11.3229 -0.000795186 9.57794 0.718205 8.10194C1.4582 6.58094 2.81421 5.39694 4.88121 5.04894C5.72121 4.90794 6.4432 5.09694 7.0212 5.31394L7.35221 5.44394L7.9362 5.68494C8.3362 5.84194 8.65121 5.93394 9.00021 5.93394C9.3482 5.93394 9.66421 5.84194 10.0642 5.68494ZM8.7682 1.76794C9.7442 0.790943 11.2432 0.706943 11.5962 1.06094C11.9502 1.41394 11.8662 2.91294 10.8892 3.88894C9.91321 4.86494 8.4142 4.94894 8.0612 4.59594C7.7072 4.24294 7.7912 2.74394 8.7682 1.76794Z" fill="#0C4654"/>
</svg>
