<svg width="18" height="19" viewBox="0 0 18 19" fill="none" xmlns="http://www.w3.org/2000/svg">
<path d="M15.5625 2.5H12.9375V1.1875C12.9375 1.07147 12.8914 0.960188 12.8094 0.878141C12.7273 0.796094 12.616 0.75 12.5 0.75C12.384 0.75 12.2727 0.796094 12.1906 0.878141C12.1086 0.960188 12.0625 1.07147 12.0625 1.1875V2.5H5.9375V1.1875C5.9375 1.07147 5.89141 0.960188 5.80936 0.878141C5.72731 0.796094 5.61603 0.75 5.5 0.75C5.38397 0.75 5.27269 0.796094 5.19064 0.878141C5.10859 0.960188 5.0625 1.07147 5.0625 1.1875V2.5H2.4375C1.85755 2.50069 1.30156 2.73139 0.891471 3.14147C0.481386 3.55156 0.250695 4.10755 0.25 4.6875V16.0625C0.250695 16.6424 0.481386 17.1984 0.891471 17.6085C1.30156 18.0186 1.85755 18.2493 2.4375 18.25H15.5625C16.1427 18.25 16.6991 18.0195 17.1093 17.6093C17.5195 17.1991 17.75 16.6427 17.75 16.0625V4.6875C17.75 4.10734 17.5195 3.55094 17.1093 3.1407C16.6991 2.73047 16.1427 2.5 15.5625 2.5ZM16.875 16.0625C16.875 16.4106 16.7367 16.7444 16.4906 16.9906C16.2444 17.2367 15.9106 17.375 15.5625 17.375H2.4375C2.0894 17.375 1.75556 17.2367 1.50942 16.9906C1.26328 16.7444 1.125 16.4106 1.125 16.0625V8.625H16.875V16.0625ZM16.875 7.75H1.125V4.6875C1.125 3.963 1.71125 3.375 2.4375 3.375H5.0625V4.6875C5.0625 4.80353 5.10859 4.91481 5.19064 4.99686C5.27269 5.07891 5.38397 5.125 5.5 5.125C5.61603 5.125 5.72731 5.07891 5.80936 4.99686C5.89141 4.91481 5.9375 4.80353 5.9375 4.6875V3.375H12.0625V4.6875C12.0625 4.80353 12.1086 4.91481 12.1906 4.99686C12.2727 5.07891 12.384 5.125 12.5 5.125C12.616 5.125 12.7273 5.07891 12.8094 4.99686C12.8914 4.91481 12.9375 4.80353 12.9375 4.6875V3.375H15.5625C15.9106 3.375 16.2444 3.51328 16.4906 3.75942C16.7367 4.00556 16.875 4.3394 16.875 4.6875V7.75Z" fill="#3A966C"/>
</svg>
