<svg width="30" height="32" viewBox="0 0 30 32" fill="none" xmlns="http://www.w3.org/2000/svg">
<path d="M25.796 18.364C24.892 16.558 23.234 15.288 21.244 14.88L19.614 14.548C18 14.216 16.374 14.884 15.478 16.246C12.984 20.03 13.818 25.8 17.38 29.38L19.594 31.606C19.85 31.87 20.194 32 20.536 32C20.876 32 21.216 31.872 21.476 31.612C21.998 31.094 22 30.248 21.482 29.726L19.268 27.5C18.3 26.526 17.598 25.32 17.174 24.054H17.268C19.08 24.054 20.804 24.84 21.996 26.21C22.26 26.512 22.63 26.668 23.002 26.668C23.314 26.668 23.626 26.56 23.878 26.34C24.434 25.856 24.492 25.014 24.008 24.46C22.308 22.508 19.854 21.39 17.27 21.39H16.716C16.702 20.048 17.016 18.76 17.704 17.716C17.994 17.276 18.558 17.052 19.082 17.164L20.71 17.496C21.876 17.734 22.886 18.506 23.412 19.56L24.544 21.826C24.872 22.484 25.676 22.75 26.334 22.422C26.992 22.092 27.26 21.292 26.93 20.632L25.796 18.364Z" fill="white"/>
<path d="M29.448 16.5561L28.634 15.3301C26.73 12.2141 24.19 10.4601 20.688 9.87006C21.028 6.29006 19.626 2.72406 16.942 0.334061C16.392 -0.153939 15.548 -0.105938 15.06 0.444062C14.57 0.994062 14.62 1.83806 15.17 2.32606C17.224 4.15406 18.296 6.88006 18.034 9.63806C17.928 10.9861 18.842 12.1861 20.162 12.4281C22.946 12.9401 24.858 14.2641 26.386 16.7601L27.224 18.0261C27.482 18.4121 27.904 18.6221 28.338 18.6221C28.59 18.6221 28.848 18.5501 29.074 18.4001C29.686 17.9981 29.854 17.1701 29.448 16.5561Z" fill="white"/>
<path d="M8.37174 22.0238C9.49774 21.6078 10.3557 20.7458 10.7197 19.6818C10.8537 19.3158 11.0257 18.9338 11.2297 18.5518L12.9497 15.3518C15.4877 10.6358 14.3437 4.70777 10.2237 1.25177L9.07573 0.305765C8.50573 -0.164235 7.66773 -0.0802348 7.19773 0.485765C6.72973 1.05377 6.80973 1.89377 7.37773 2.36177L8.51774 3.30177C9.20774 3.87977 9.76774 4.56177 10.2337 5.29377C7.98174 5.45177 5.87173 6.61977 4.55773 8.59577C4.14973 9.20977 4.31773 10.0358 4.92973 10.4438C5.15573 10.5958 5.41373 10.6678 5.66573 10.6678C6.09573 10.6678 6.52173 10.4598 6.77773 10.0718C7.80573 8.52577 9.58374 7.73777 11.3657 7.96977C11.8457 9.98977 11.6337 12.1678 10.5997 14.0898L8.87773 17.2958C8.61373 17.7938 8.38973 18.2898 8.20773 18.7938C8.09373 19.1198 7.81773 19.3878 7.46773 19.5178C4.87573 20.4278 3.09973 21.8518 1.70373 24.1378L0.529735 26.0698C0.147735 26.6998 0.347735 27.5198 0.977735 27.9018C1.19373 28.0318 1.43174 28.0958 1.66774 28.0958C2.11774 28.0958 2.55773 27.8678 2.80773 27.4538L3.97974 25.5238C5.04374 23.7758 6.35174 22.7338 8.37174 22.0238Z" fill="white"/>
</svg>
