<svg width="20" height="20" viewBox="0 0 20 20" fill="none" xmlns="http://www.w3.org/2000/svg">
<path d="M0.5 1.17838C0.5 0.998461 0.571478 0.825913 0.698711 0.698692C0.825943 0.571472 0.998507 0.5 1.17844 0.5H1.77275C2.75921 0.5 3.32638 1.14175 3.65475 1.78213C3.87863 2.22037 4.0401 2.75493 4.17443 3.21894H18.1435C18.3532 3.219 18.56 3.26764 18.7477 3.36105C18.9354 3.45445 19.0989 3.59008 19.2253 3.75729C19.3518 3.9245 19.4378 4.11873 19.4766 4.32476C19.5154 4.53078 19.5059 4.74299 19.4488 4.94473L17.4189 12.1016C17.2575 12.6694 16.9152 13.1691 16.4441 13.5249C15.973 13.8806 15.3987 14.0731 14.8083 14.073H7.91671C7.32141 14.0732 6.74257 13.8777 6.26935 13.5165C5.79613 13.1554 5.45479 12.6487 5.29793 12.0745L4.42681 8.87932L4.41324 8.8359L3.01566 4.08997L2.87997 3.63275C2.74428 3.16331 2.62488 2.74814 2.44577 2.39946C2.23002 1.97886 2.03192 1.85676 1.77275 1.85676H1.17844C0.998507 1.85676 0.825943 1.78528 0.698711 1.65806C0.571478 1.53084 0.5 1.35829 0.5 1.17838ZM7.96692 19.5C8.50672 19.5 9.02441 19.2856 9.40611 18.9039C9.7878 18.5223 10.0022 18.0046 10.0022 17.4649C10.0022 16.9251 9.7878 16.4075 9.40611 16.0258C9.02441 15.6441 8.50672 15.4297 7.96692 15.4297C7.42711 15.4297 6.90942 15.6441 6.52773 16.0258C6.14603 16.4075 5.93159 16.9251 5.93159 17.4649C5.93159 18.0046 6.14603 18.5223 6.52773 18.9039C6.90942 19.2856 7.42711 19.5 7.96692 19.5ZM14.7513 19.5C15.2911 19.5 15.8088 19.2856 16.1905 18.9039C16.5722 18.5223 16.7866 18.0046 16.7866 17.4649C16.7866 16.9251 16.5722 16.4075 16.1905 16.0258C15.8088 15.6441 15.2911 15.4297 14.7513 15.4297C14.2115 15.4297 13.6938 15.6441 13.3121 16.0258C12.9304 16.4075 12.716 16.9251 12.716 17.4649C12.716 18.0046 12.9304 18.5223 13.3121 18.9039C13.6938 19.2856 14.2115 19.5 14.7513 19.5Z" fill="black"/>
</svg>
