<svg width="18" height="20" viewBox="0 0 18 20" fill="none" xmlns="http://www.w3.org/2000/svg">
<path d="M11.9995 5.4707L4.18934 13.4105C3.90804 13.6918 3.75 14.0733 3.75 14.4712C3.75 14.869 3.90804 15.2505 4.18934 15.5318C4.47064 15.8131 4.85218 15.9712 5.25 15.9712C5.64783 15.9712 6.02936 15.8131 6.31066 15.5318L15.6208 6.09202C15.8993 5.81345 16.1203 5.48273 16.2711 5.11875C16.4219 4.75478 16.4995 4.36467 16.4995 3.9707C16.4995 3.57674 16.4219 3.18663 16.2711 2.82265C16.1203 2.45868 15.8993 2.12796 15.6208 1.84938C15.3422 1.57081 15.0115 1.34983 14.6475 1.19906C14.2835 1.0483 13.8934 0.970703 13.4995 0.970703C13.1055 0.970703 12.7154 1.0483 12.3514 1.19906C11.9874 1.34983 11.6567 1.57081 11.3781 1.84938L2.06802 11.2892C1.22411 12.1331 0.75 13.2777 0.75 14.4712C0.75 15.6646 1.22411 16.8092 2.06802 17.6531C2.91193 18.4971 4.05653 18.9712 5.25 18.9712C6.44348 18.9712 7.58807 18.4971 8.43198 17.6531L16.1245 9.97071" stroke="#0C4654" stroke-width="1.5" stroke-linecap="round" stroke-linejoin="round"/>
</svg>
