<svg width="22" height="22" viewBox="0 0 22 22" fill="none" xmlns="http://www.w3.org/2000/svg">
<path fill-rule="evenodd" clip-rule="evenodd" d="M20.4366 5.78433C20.5197 5.81988 20.595 5.87148 20.6581 5.93617C20.7213 6.00086 20.7711 6.07737 20.8046 6.16133C20.8382 6.24528 20.8548 6.33503 20.8536 6.42543C20.8525 6.51583 20.8335 6.60511 20.7977 6.68816L20.1661 6.41683L20.7986 6.68816L20.7968 6.69183L20.7941 6.69824L20.7849 6.72024L20.7491 6.79724C20.5489 7.21256 20.3265 7.61678 20.0827 8.00816C19.594 8.79478 19.0271 9.53001 18.3906 10.2027L19.2779 11.0909C19.3993 11.2212 19.4654 11.3936 19.4623 11.5717C19.4592 11.7498 19.387 11.9198 19.261 12.0457C19.1351 12.1717 18.9652 12.2438 18.787 12.247C18.6089 12.2501 18.4366 12.184 18.3062 12.0626L17.3886 11.1459C16.7501 11.6836 16.0504 12.1441 15.3041 12.5182L16.1603 13.8336C16.2597 13.9865 16.2944 14.1727 16.2565 14.3511C16.2187 14.5295 16.1116 14.6856 15.9586 14.7851C15.8057 14.8845 15.6196 14.9191 15.4411 14.8813C15.2627 14.8435 15.1066 14.7363 15.0071 14.5834L14.0089 13.0489C13.2939 13.2827 12.5211 13.4412 11.6879 13.4981V15.1252C11.6879 15.3075 11.6155 15.4824 11.4865 15.6113C11.3576 15.7402 11.1827 15.8127 11.0004 15.8127C10.8181 15.8127 10.6432 15.7402 10.5143 15.6113C10.3853 15.4824 10.3129 15.3075 10.3129 15.1252V13.4981C9.54688 13.4461 8.78983 13.3027 8.05789 13.0709L7.07339 14.5834C7.02416 14.6591 6.96049 14.7244 6.88603 14.7755C6.81157 14.8266 6.72777 14.8626 6.63941 14.8813C6.55106 14.9 6.45988 14.9012 6.37108 14.8847C6.28229 14.8681 6.19761 14.8343 6.12189 14.7851C5.96898 14.6856 5.86182 14.5295 5.824 14.3511C5.80527 14.2627 5.80413 14.1716 5.82064 14.0828C5.83715 13.994 5.87099 13.9093 5.92023 13.8336L6.75714 12.5484C6.00468 12.1784 5.29905 11.7198 4.65523 11.1826L3.77523 12.0626C3.64562 12.1879 3.47199 12.2573 3.29173 12.2558C3.11147 12.2543 2.939 12.1821 2.81147 12.0547C2.68394 11.9272 2.61156 11.7548 2.60991 11.5746C2.60826 11.3943 2.67747 11.2206 2.80264 11.0909L3.64964 10.2439C2.74918 9.30083 1.98744 8.23445 1.38731 7.07683C1.32732 6.95952 1.26986 6.84094 1.21498 6.72116L1.20581 6.69824L1.20214 6.69183V6.68908H1.20031C1.12835 6.52145 1.12592 6.33118 1.19357 6.16177C1.26122 5.99235 1.39339 5.85675 1.56102 5.78478C1.72865 5.71282 1.918 5.7104 2.08741 5.77804C2.25683 5.84569 2.39243 5.97786 2.46439 6.14549V6.14733L2.47081 6.16016L2.49739 6.21791C2.52184 6.27046 2.56003 6.34838 2.61198 6.45166C3.24661 7.67945 4.0854 8.7904 5.09248 9.73699C5.88631 10.4749 6.85889 11.1542 8.02214 11.6015C8.97252 11.965 9.98195 12.1497 10.9995 12.146C12.0382 12.1497 13.0682 11.9571 14.0355 11.5786C15.1923 11.123 16.1585 10.4392 16.9459 9.70033C17.9987 8.70069 18.8645 7.52106 19.5025 6.21699L19.5281 6.15924L19.5336 6.14733M20.4366 5.78433C20.269 5.71273 20.08 5.71147 19.9108 5.77919C19.7417 5.84691 19.6064 5.97898 19.5346 6.14641L20.4366 5.78433Z" fill="#A8B7D4"/>
</svg>
