<svg width="26" height="26" viewBox="0 0 26 26" fill="none" xmlns="http://www.w3.org/2000/svg">
<path d="M17.3354 2.16675H16.252C14.7202 2.16675 13.9543 2.16675 13.4787 2.64341C13.002 3.11791 13.002 3.88383 13.002 5.41675C13.002 6.94967 13.002 7.7145 13.4787 8.19008C13.9532 8.66675 14.7191 8.66675 16.252 8.66675H17.3354C18.8672 8.66675 19.6331 8.66675 20.1087 8.19008C20.4174 7.88241 20.5269 7.45233 20.5637 6.77092H20.5854L22.3349 7.5C23.0142 7.78275 23.3533 7.92358 23.5938 7.76325C23.8354 7.60291 23.8354 7.23458 23.8354 6.50008V4.33341C23.8354 3.59891 23.8354 3.23058 23.5938 3.07025C23.3533 2.90991 23.0142 3.05075 22.3349 3.3335L20.5854 4.06258H20.5637C20.5258 3.38116 20.4174 2.95108 20.1087 2.64341C19.6342 2.16675 18.8683 2.16675 17.3354 2.16675ZM8.66869 18.4167C5.60502 18.4167 4.0721 18.4167 3.12094 17.4645C2.50344 16.8481 2.28677 15.9879 2.21094 14.6251H23.7942C23.7184 15.9879 23.5006 16.8481 22.8842 17.4645C21.9298 18.4167 20.3979 18.4167 17.3354 18.4167H13.8145V22.7501H17.3354C17.5508 22.7501 17.7575 22.8357 17.9099 22.9881C18.0623 23.1404 18.1479 23.3471 18.1479 23.5626C18.1479 23.7781 18.0623 23.9847 17.9099 24.1371C17.7575 24.2895 17.5508 24.3751 17.3354 24.3751H8.66869C8.4532 24.3751 8.24654 24.2895 8.09416 24.1371C7.94179 23.9847 7.85619 23.7781 7.85619 23.5626C7.85619 23.3471 7.94179 23.1404 8.09416 22.9881C8.24654 22.8357 8.4532 22.7501 8.66869 22.7501H12.1895V18.4167H8.66869Z" fill="#3A966C"/>
<path d="M23.8311 10.8334V11.9167C23.8326 12.514 23.8304 13.0557 23.8246 13.5417H2.17204C2.16554 13.0557 2.16301 12.514 2.16446 11.9167V10.8334C2.16446 6.74817 2.16446 4.705 3.43412 3.43641C4.70379 2.16783 6.74587 2.16675 10.8311 2.16675H11.8256C11.6035 2.58275 11.5006 3.01825 11.4465 3.41691C11.3728 3.96941 11.3728 4.63892 11.3728 5.32791V5.50558C11.3728 6.19458 11.3728 6.86408 11.4465 7.41658C11.531 8.0395 11.7346 8.74908 12.324 9.3395C12.9155 9.92992 13.625 10.1336 14.248 10.217C14.8005 10.2928 15.47 10.2928 16.159 10.2917H17.42C18.109 10.2917 18.7785 10.2917 19.331 10.2181C19.9539 10.1336 20.6635 9.92991 21.2539 9.34058C21.3746 9.22004 21.4841 9.08878 21.581 8.94842L21.7067 9.00041L21.7674 9.02533C22.049 9.14342 22.4065 9.29183 22.7261 9.37308C22.9785 9.43808 23.3826 9.50525 23.829 9.40233C23.8304 9.84939 23.8311 10.3264 23.8311 10.8334Z" fill="#3A966C"/>
</svg>
