<svg width="25" height="24" viewBox="0 0 25 24" fill="none" xmlns="http://www.w3.org/2000/svg">
<path d="M17 8.25V3.75C17 2.5095 15.9905 1.5 14.75 1.5H10.25C9.0095 1.5 8 2.5095 8 3.75V8.25C8 10.7318 10.0182 12.75 12.5 12.75C14.9818 12.75 17 10.7318 17 8.25ZM9.5 3.75C9.5 3.33675 9.83675 3 10.25 3H14.75C15.1632 3 15.5 3.33675 15.5 3.75V4.5H9.5V3.75ZM9.5 8.25V6H15.5V8.25C15.5 8.38425 15.4775 8.5125 15.4603 8.64225C14.6495 7.923 13.6017 7.5 12.5 7.5C11.3983 7.5 10.3505 7.923 9.53975 8.64225C9.5225 8.5125 9.5 8.38425 9.5 8.25ZM12.5 9C13.4165 9 14.2557 9.4155 14.8212 10.1265C14.2707 10.806 13.4405 11.25 12.5 11.25C11.5595 11.25 10.7292 10.806 10.1787 10.1265C10.7442 9.4155 11.5835 9 12.5 9Z" fill="white"/>
<path d="M17.75 13.5H7.25C5.18225 13.5 3.5 15.1823 3.5 17.25V21.75C3.5 22.164 3.836 22.5 4.25 22.5H20.75C21.164 22.5 21.5 22.164 21.5 21.75V17.25C21.5 15.1823 19.8177 13.5 17.75 13.5ZM20 21H5V17.25C5 16.0095 6.0095 15 7.25 15H8.75V15.8565C7.46 16.1918 6.5 17.3565 6.5 18.75V19.5C6.5 19.914 6.836 20.25 7.25 20.25H8C8.414 20.25 8.75 19.914 8.75 19.5C8.75 19.086 8.414 18.75 8 18.75C8 17.9227 8.67275 17.25 9.5 17.25C10.3273 17.25 11 17.9227 11 18.75C10.586 18.75 10.25 19.086 10.25 19.5C10.25 19.914 10.586 20.25 11 20.25H11.75C12.164 20.25 12.5 19.914 12.5 19.5V18.75C12.5 17.3565 11.54 16.1918 10.25 15.8565V15H15.5V16.7078C15.0538 16.9673 14.75 17.4457 14.75 18C14.75 18.8288 15.4213 19.5 16.25 19.5C17.0787 19.5 17.75 18.8288 17.75 18C17.75 17.4465 17.4462 16.968 17 16.7078V15H17.75C18.9905 15 20 16.0095 20 17.25V21Z" fill="white"/>
</svg>
