<svg width="22" height="27" viewBox="0 0 22 27" fill="none" xmlns="http://www.w3.org/2000/svg">
<path d="M18.0859 1.70532H3.91927C2.35446 1.70532 1.08594 2.97385 1.08594 4.53866V22.9553C1.08594 24.5201 2.35446 25.7887 3.91927 25.7887H18.0859C19.6507 25.7887 20.9193 24.5201 20.9193 22.9553V4.53866C20.9193 2.97385 19.6507 1.70532 18.0859 1.70532Z" stroke="#3A966C" stroke-width="2"/>
<path d="M18.0859 1.70532H3.91927C2.35446 1.70532 1.08594 2.97385 1.08594 4.53866V22.9553C1.08594 24.5201 2.35446 25.7887 3.91927 25.7887H18.0859C19.6507 25.7887 20.9193 24.5201 20.9193 22.9553V4.53866C20.9193 2.97385 19.6507 1.70532 18.0859 1.70532Z" stroke="black" stroke-opacity="0.2" stroke-width="2"/>
<path d="M6.75 8.78857H15.25M6.75 14.4552H15.25M6.75 20.1219H12.4167" stroke="#3A966C" stroke-width="2" stroke-linecap="round"/>
<path d="M6.75 8.78857H15.25M6.75 14.4552H15.25M6.75 20.1219H12.4167" stroke="black" stroke-opacity="0.2" stroke-width="2" stroke-linecap="round"/>
</svg>
