<svg width="9" height="8" viewBox="0 0 9 8" fill="none" xmlns="http://www.w3.org/2000/svg">
<path d="M0.353927 1.22595L3.13156 4.00358L0.353927 6.78121C0.0747326 7.0604 0.0747326 7.51141 0.353927 7.7906C0.633122 8.0698 1.08413 8.0698 1.36332 7.7906L4.64923 4.5047C4.92842 4.2255 4.92842 3.7745 4.64923 3.4953L1.36332 0.209396C1.08413 -0.0697985 0.633121 -0.0697985 0.353927 0.209396C0.0818911 0.488591 0.0747323 0.946756 0.353927 1.22595Z" fill="white"/>
<path d="M4.35393 1.22595L7.13156 4.00358L4.35393 6.78121C4.07473 7.0604 4.07473 7.51141 4.35393 7.7906C4.63312 8.0698 5.08413 8.0698 5.36332 7.7906L8.64923 4.5047C8.92842 4.2255 8.92842 3.7745 8.64923 3.4953L5.36332 0.209396C5.08413 -0.0697985 4.63312 -0.0697985 4.35393 0.209396C4.08189 0.488591 4.07473 0.946756 4.35393 1.22595Z" fill="white"/>
</svg>
