<svg width="14" height="18" viewBox="0 0 14 18" fill="none" xmlns="http://www.w3.org/2000/svg">
<path d="M7 5.88999L1.266 10.356C1.56933 11.6113 2.09033 12.7547 2.829 13.786C3.56767 14.8173 4.458 15.631 5.5 16.227V13.307C5.5 13.0757 5.57667 12.8833 5.73 12.73C5.88333 12.5767 6.076 12.5 6.308 12.5H7.692C7.924 12.5 8.11667 12.5767 8.27 12.73C8.42333 12.8833 8.5 13.076 8.5 13.308V16.227C9.542 15.631 10.4323 14.817 11.171 13.785C11.9097 12.7537 12.4307 11.6103 12.734 10.355L7 5.88999ZM1 3.79899V8.09999C1 8.27332 1.00733 8.46432 1.022 8.67299C1.03667 8.88232 1.05667 9.07332 1.082 9.24599L7 4.63499L12.917 9.24599C12.943 9.07266 12.9633 8.88166 12.978 8.67299C12.9927 8.46432 13 8.27332 13 8.09999V3.79799C13 3.66999 12.9647 3.55466 12.894 3.45199C12.824 3.34932 12.7247 3.27266 12.596 3.22199L7.212 1.22199C7.148 1.19532 7.07733 1.18199 7 1.18199C6.92267 1.18199 6.852 1.19532 6.788 1.22199L1.404 3.22199C1.27533 3.27266 1.176 3.34932 1.106 3.45199C1.03533 3.55466 1 3.67099 1 3.79899ZM7 17.842C6.90867 17.842 6.813 17.8337 6.713 17.817C6.613 17.8003 6.51967 17.7753 6.433 17.742C4.46433 16.992 2.9 15.72 1.74 13.926C0.58 12.132 0 10.19 0 8.09999V3.81699C0 3.47699 0.0983334 3.16932 0.295 2.89399C0.491667 2.61865 0.743334 2.41866 1.05 2.29399L6.435 0.293988C6.62967 0.223322 6.818 0.187988 7 0.187988C7.182 0.187988 7.37067 0.223322 7.566 0.293988L12.95 2.29399C13.2567 2.41866 13.5083 2.61865 13.705 2.89399C13.9017 3.16932 14 3.47699 14 3.81699V8.09999C14 10.19 13.42 12.132 12.26 13.926C11.1 15.72 9.53567 16.992 7.567 17.742C7.48033 17.7753 7.387 17.8003 7.287 17.817C7.187 17.8337 7.09133 17.842 7 17.842Z" fill="black"/>
</svg>
