<svg width="19" height="19" viewBox="0 0 19 19" fill="none" xmlns="http://www.w3.org/2000/svg">
<path d="M8.1444 14.8829H1.67188" stroke="#0C4654" stroke-width="1.5" stroke-linecap="round" stroke-linejoin="round"/>
<path fill-rule="evenodd" clip-rule="evenodd" d="M12.207 14.8834C12.207 16.9252 12.8879 17.6052 14.9288 17.6052C16.9697 17.6052 17.6506 16.9252 17.6506 14.8834C17.6506 12.8416 16.9697 12.1616 14.9288 12.1616C12.8879 12.1616 12.207 12.8416 12.207 14.8834Z" stroke="#0C4654" stroke-width="1.5" stroke-linecap="round" stroke-linejoin="round"/>
<path d="M11.1758 4.39415H17.6474" stroke="#0C4654" stroke-width="1.5" stroke-linecap="round" stroke-linejoin="round"/>
<path fill-rule="evenodd" clip-rule="evenodd" d="M7.11635 4.39269C7.11635 2.35179 6.43545 1.6709 4.39456 1.6709C2.35277 1.6709 1.67188 2.35179 1.67188 4.39269C1.67188 6.43448 2.35277 7.11448 4.39456 7.11448C6.43545 7.11448 7.11635 6.43448 7.11635 4.39269Z" stroke="#0C4654" stroke-width="1.5" stroke-linecap="round" stroke-linejoin="round"/>
</svg>
