<svg width="21" height="18" viewBox="0 0 21 18" fill="none" xmlns="http://www.w3.org/2000/svg">
<path d="M19.0016 12.9999V7.09992L10.9516 11.4749C10.6516 11.6416 10.3349 11.7249 10.0016 11.7249C9.66824 11.7249 9.35157 11.6416 9.05157 11.4749L0.601571 6.87492C0.418238 6.77492 0.288905 6.64992 0.213571 6.49992C0.138238 6.34992 0.100905 6.18325 0.101571 5.99992C0.102238 5.81658 0.139905 5.64992 0.214571 5.49992C0.289238 5.34992 0.418238 5.22492 0.601571 5.12492L9.05157 0.524918C9.20157 0.441585 9.3559 0.378918 9.51457 0.336918C9.67324 0.294918 9.83557 0.274251 10.0016 0.274918C10.1676 0.275585 10.3302 0.296585 10.4896 0.337918C10.6489 0.379251 10.8029 0.441585 10.9516 0.524918L20.4766 5.72492C20.6432 5.80825 20.7726 5.92925 20.8646 6.08792C20.9566 6.24658 21.0022 6.41725 21.0016 6.59992V12.9999C21.0016 13.2833 20.9056 13.5209 20.7136 13.7129C20.5216 13.9049 20.2842 14.0006 20.0016 13.9999C19.7189 13.9993 19.4816 13.9033 19.2896 13.7119C19.0976 13.5206 19.0016 13.2833 19.0016 12.9999ZM9.05157 17.4749L4.05157 14.7749C3.71824 14.5916 3.4599 14.3416 3.27657 14.0249C3.09324 13.7083 3.00157 13.3666 3.00157 12.9999V9.19992L9.05157 12.4749C9.35157 12.6416 9.66824 12.7249 10.0016 12.7249C10.3349 12.7249 10.6516 12.6416 10.9516 12.4749L17.0016 9.19992V12.9999C17.0016 13.3666 16.9099 13.7083 16.7266 14.0249C16.5432 14.3416 16.2849 14.5916 15.9516 14.7749L10.9516 17.4749C10.8016 17.5583 10.6476 17.6209 10.4896 17.6629C10.3316 17.7049 10.1689 17.7256 10.0016 17.7249C9.83424 17.7243 9.67157 17.7036 9.51357 17.6629C9.35557 17.6223 9.20157 17.5596 9.05157 17.4749Z" fill="black"/>
</svg>
