<svg width="25" height="27" viewBox="0 0 25 27" fill="none" xmlns="http://www.w3.org/2000/svg">
<path d="M0.3125 4.6875V15.3806L0.575937 15.6741L5.9375 21.0347V26.25H11.5625V20.625C11.5662 20.5734 11.6994 17.6672 9.27688 16.1128C9.27031 16.1091 9.28438 16.0875 9.27688 16.0847C9.27031 16.08 9.25531 16.0875 9.24875 16.0847C8.13781 15.3591 6.99219 14.7666 6.20187 14.1506C5.40312 13.5319 5 13.0191 5 12.1875H3.125C3.125 13.7034 4.01094 14.8537 5.02906 15.645C6.04719 16.4362 7.23031 17.0184 8.22219 17.6662H8.25219C9.75313 18.6075 9.6875 20.5959 9.6875 20.5959V24.375H7.8125V20.2444L7.54906 19.9509L2.1875 14.5903V4.6875H0.3125ZM22.8125 4.6875V14.5903L17.4509 19.9509L17.1875 20.2444V24.375H15.3125V20.5659C15.3125 20.5659 15.2469 18.6066 16.7478 17.6662H16.7778C17.7669 17.0184 18.9528 16.4344 19.9709 15.6441C20.9891 14.8547 21.875 13.7034 21.875 12.1875H20C20 13.0191 19.5969 13.5319 18.7991 14.1506C18.0078 14.7656 16.8622 15.3581 15.7522 16.0838C15.7447 16.0875 15.7297 16.08 15.7222 16.0838V16.1137C13.3203 17.6512 13.4347 20.5266 13.4375 20.625V26.25H19.0625V21.0347L24.4241 15.6741L24.6875 15.3806V4.6875H22.8125Z" fill="#3A966C"/>
<path d="M15.625 2.5C13.625 2.5 12.5 4.16688 12.5 5C12.5 4.16688 11.375 2.5 9.375 2.5C7.375 2.5 6.875 4.16688 6.875 5C6.875 9.375 12.5 12.5 12.5 12.5C12.5 12.5 18.125 9.375 18.125 5C18.125 4.16688 17.625 2.5 15.625 2.5Z" fill="#3A966C" stroke="#3A966C" stroke-width="2" stroke-linecap="round" stroke-linejoin="round"/>
</svg>
