<svg width="20" height="19" viewBox="0 0 20 19" fill="none" xmlns="http://www.w3.org/2000/svg">
<path d="M19.251 5.00599V11.613C19.2513 12.1337 19.1489 12.6493 18.9498 13.1304C18.7507 13.6115 18.4587 14.0487 18.0906 14.4169C17.7225 14.7851 17.2854 15.0772 16.8043 15.2764C16.3233 15.4756 15.8077 15.5781 15.287 15.578H12.644L10.464 17.758C10.4046 17.821 10.3329 17.8711 10.2533 17.9054C10.1738 17.9397 10.0881 17.9574 10.0015 17.9574C9.91489 17.9574 9.8292 17.9397 9.74967 17.9054C9.67014 17.8711 9.59845 17.821 9.539 17.758L7.359 15.578H4.714C4.19336 15.578 3.67781 15.4754 3.19681 15.2762C2.71581 15.0769 2.27878 14.7848 1.91068 14.4166C1.54257 14.0484 1.25061 13.6113 1.05145 13.1303C0.852304 12.6492 0.749869 12.1336 0.75 11.613V5.00599C0.75 3.95467 1.16763 2.94642 1.91103 2.20302C2.65442 1.45963 3.66268 1.04199 4.714 1.04199H15.286C16.3373 1.04199 17.3456 1.45963 18.089 2.20302C18.8324 2.94642 19.251 3.95467 19.251 5.00599Z" stroke="#0C4654" stroke-width="1.5" stroke-linecap="round" stroke-linejoin="round"/>
</svg>
