<svg width="18" height="24" viewBox="0 0 18 24" fill="none" xmlns="http://www.w3.org/2000/svg">
<path d="M9 22.9707V19.9707M9 19.9707C6.87827 19.9707 4.84344 19.1278 3.34315 17.6276C1.84285 16.1273 1 14.0924 1 11.9707M9 19.9707C11.1217 19.9707 13.1566 19.1278 14.6569 17.6276C16.1571 16.1273 17 14.0924 17 11.9707M9 16.9707C6.25 16.9707 4 14.7987 4 12.1427V5.7987C4 3.1427 6.25 0.970703 9 0.970703C11.75 0.970703 14 3.1427 14 5.7987V12.1427C14 14.7987 11.75 16.9707 9 16.9707Z" stroke="#0C4654" stroke-width="1.5" stroke-linecap="round" stroke-linejoin="round"/>
</svg>
