<svg width="153" height="35" viewBox="0 0 153 35" fill="none" xmlns="http://www.w3.org/2000/svg">
<path d="M3.28125 5.46875V17.9441L3.58859 18.2864L9.84375 24.5405V30.625H16.4062V24.0625C16.4106 24.0023 16.5659 20.6117 13.7397 18.7983C13.732 18.7939 13.7484 18.7688 13.7397 18.7655C13.732 18.76 13.7145 18.7688 13.7069 18.7655C12.4108 17.9189 11.0742 17.2277 10.1522 16.5091C9.22031 15.7872 8.75 15.1889 8.75 14.2188H6.5625C6.5625 15.9873 7.59609 17.3294 8.78391 18.2525C9.97172 19.1756 11.352 19.8548 12.5092 20.6106H12.5442C14.2953 21.7087 14.2188 24.0286 14.2188 24.0286V28.4375H12.0312V23.6184L11.7239 23.2761L5.46875 17.022V5.46875H3.28125ZM29.5312 5.46875V17.022L23.2761 23.2761L22.9688 23.6184V28.4375H20.7812V23.9936C20.7812 23.9936 20.7047 21.7077 22.4558 20.6106H22.4908C23.6447 19.8548 25.0283 19.1734 26.2161 18.2514C27.4039 17.3305 28.4375 15.9873 28.4375 14.2188H26.25C26.25 15.1889 25.7797 15.7872 24.8489 16.5091C23.9258 17.2266 22.5892 17.9178 21.2942 18.7644C21.2855 18.7688 21.268 18.76 21.2592 18.7644V18.7994C18.457 20.5931 18.5905 23.9477 18.5938 24.0625V30.625H25.1562V24.5405L31.4114 18.2864L31.7188 17.9441V5.46875H29.5312Z" fill="#3A966C"/>
<path d="M3.28125 5.46875V17.9441L3.58859 18.2864L9.84375 24.5405V30.625H16.4062V24.0625C16.4106 24.0023 16.5659 20.6117 13.7397 18.7983C13.732 18.7939 13.7484 18.7688 13.7397 18.7655C13.732 18.76 13.7145 18.7688 13.7069 18.7655C12.4108 17.9189 11.0742 17.2277 10.1522 16.5091C9.22031 15.7872 8.75 15.1889 8.75 14.2188H6.5625C6.5625 15.9873 7.59609 17.3294 8.78391 18.2525C9.97172 19.1756 11.352 19.8548 12.5092 20.6106H12.5442C14.2953 21.7087 14.2188 24.0286 14.2188 24.0286V28.4375H12.0312V23.6184L11.7239 23.2761L5.46875 17.022V5.46875H3.28125ZM29.5312 5.46875V17.022L23.2761 23.2761L22.9688 23.6184V28.4375H20.7812V23.9936C20.7812 23.9936 20.7047 21.7077 22.4558 20.6106H22.4908C23.6447 19.8548 25.0283 19.1734 26.2161 18.2514C27.4039 17.3305 28.4375 15.9873 28.4375 14.2188H26.25C26.25 15.1889 25.7797 15.7872 24.8489 16.5091C23.9258 17.2266 22.5892 17.9178 21.2942 18.7644C21.2855 18.7688 21.268 18.76 21.2592 18.7644V18.7994C18.457 20.5931 18.5905 23.9477 18.5938 24.0625V30.625H25.1562V24.5405L31.4114 18.2864L31.7188 17.9441V5.46875H29.5312Z" fill="black" fill-opacity="0.2"/>
<path d="M21.1458 2.91669C18.8125 2.91669 17.5 4.86137 17.5 5.83335C17.5 4.86137 16.1875 2.91669 13.8542 2.91669C11.5208 2.91669 10.9375 4.86137 10.9375 5.83335C10.9375 10.9375 17.5 14.5834 17.5 14.5834C17.5 14.5834 24.0625 10.9375 24.0625 5.83335C24.0625 4.86137 23.4792 2.91669 21.1458 2.91669Z" fill="#3A966C"/>
<path d="M21.1458 2.91669C18.8125 2.91669 17.5 4.86137 17.5 5.83335C17.5 4.86137 16.1875 2.91669 13.8542 2.91669C11.5208 2.91669 10.9375 4.86137 10.9375 5.83335C10.9375 10.9375 17.5 14.5834 17.5 14.5834C17.5 14.5834 24.0625 10.9375 24.0625 5.83335C24.0625 4.86137 23.4792 2.91669 21.1458 2.91669Z" fill="black" fill-opacity="0.2"/>
<path d="M21.1458 2.91669C18.8125 2.91669 17.5 4.86137 17.5 5.83335C17.5 4.86137 16.1875 2.91669 13.8542 2.91669C11.5208 2.91669 10.9375 4.86137 10.9375 5.83335C10.9375 10.9375 17.5 14.5834 17.5 14.5834C17.5 14.5834 24.0625 10.9375 24.0625 5.83335C24.0625 4.86137 23.4792 2.91669 21.1458 2.91669Z" stroke="#3A966C" stroke-width="2" stroke-linecap="round" stroke-linejoin="round"/>
<path d="M21.1458 2.91669C18.8125 2.91669 17.5 4.86137 17.5 5.83335C17.5 4.86137 16.1875 2.91669 13.8542 2.91669C11.5208 2.91669 10.9375 4.86137 10.9375 5.83335C10.9375 10.9375 17.5 14.5834 17.5 14.5834C17.5 14.5834 24.0625 10.9375 24.0625 5.83335C24.0625 4.86137 23.4792 2.91669 21.1458 2.91669Z" stroke="black" stroke-opacity="0.2" stroke-width="2" stroke-linecap="round" stroke-linejoin="round"/>
<path d="M40.36 24.5V10.88H45.04C46.4133 10.88 47.6067 11.1533 48.62 11.7C49.6467 12.2467 50.44 13.0267 51 14.04C51.5733 15.0533 51.86 16.2733 51.86 17.7C51.86 19.14 51.5733 20.3667 51 21.38C50.44 22.3933 49.6467 23.1667 48.62 23.7C47.5933 24.2333 46.3933 24.5 45.02 24.5H40.36ZM42.98 22.88L42 22H44.84C45.68 22 46.42 21.8467 47.06 21.54C47.7133 21.2333 48.2267 20.7667 48.6 20.14C48.9733 19.5133 49.16 18.7 49.16 17.7C49.16 16.74 48.9733 15.94 48.6 15.3C48.24 14.66 47.7333 14.18 47.08 13.86C46.44 13.54 45.7 13.38 44.86 13.38H41.86L42.98 12.58V22.88ZM57.658 24.74C56.6446 24.74 55.7513 24.5267 54.978 24.1C54.218 23.66 53.6246 23.06 53.198 22.3C52.7713 21.5267 52.558 20.6333 52.558 19.62C52.558 18.6067 52.7713 17.72 53.198 16.96C53.6246 16.1867 54.218 15.5867 54.978 15.16C55.7513 14.72 56.6446 14.5 57.658 14.5C58.6713 14.5 59.558 14.72 60.318 15.16C61.0913 15.5867 61.6913 16.1867 62.118 16.96C62.5446 17.72 62.758 18.6067 62.758 19.62C62.758 20.6333 62.5446 21.5267 62.118 22.3C61.6913 23.06 61.0913 23.66 60.318 24.1C59.558 24.5267 58.6713 24.74 57.658 24.74ZM57.658 22.2C58.378 22.2 58.9646 21.96 59.418 21.48C59.8713 21 60.098 20.38 60.098 19.62C60.098 18.8467 59.8713 18.22 59.418 17.74C58.9646 17.26 58.378 17.02 57.658 17.02C56.938 17.02 56.3513 17.26 55.898 17.74C55.458 18.2067 55.238 18.8267 55.238 19.6C55.238 20.3733 55.458 21 55.898 21.48C56.3513 21.96 56.938 22.2 57.658 22.2ZM68.1727 24.74C67.1727 24.74 66.2993 24.52 65.5527 24.08C64.806 23.64 64.226 23.0333 63.8127 22.26C63.4127 21.4867 63.2127 20.6 63.2127 19.6C63.2127 18.6133 63.4127 17.7333 63.8127 16.96C64.226 16.1867 64.806 15.5867 65.5527 15.16C66.2993 14.72 67.1727 14.5 68.1727 14.5C69.2127 14.5 70.126 14.7667 70.9127 15.3C71.7127 15.82 72.286 16.5267 72.6327 17.42L70.2327 18.46C70.0327 18.0067 69.7593 17.6533 69.4127 17.4C69.0793 17.1467 68.6593 17.02 68.1527 17.02C67.4993 17.02 66.9527 17.2533 66.5127 17.72C66.0727 18.1733 65.8527 18.8 65.8527 19.6C65.8527 20.4133 66.0727 21.0467 66.5127 21.5C66.9527 21.9533 67.4993 22.18 68.1527 22.18C68.6593 22.18 69.0793 22.06 69.4127 21.82C69.7593 21.5667 70.0327 21.2133 70.2327 20.76L72.6327 21.8C72.286 22.68 71.7127 23.3933 70.9127 23.94C70.1127 24.4733 69.1993 24.74 68.1727 24.74ZM76.008 24.6C75.568 24.6 75.1613 24.5067 74.788 24.32C74.428 24.1333 74.1346 23.8467 73.908 23.46C73.6946 23.06 73.588 22.5467 73.588 21.92V10.88H76.188V21C76.188 21.4667 76.2813 21.7733 76.468 21.92C76.6546 22.0533 76.8813 22.12 77.148 22.12V24.46C77.0013 24.5133 76.8213 24.5467 76.608 24.56C76.408 24.5867 76.208 24.6 76.008 24.6ZM81.3247 24.78C80.6047 24.78 79.9714 24.6467 79.4247 24.38C78.878 24.1 78.458 23.7133 78.1647 23.22C77.8714 22.7133 77.7247 22.1267 77.7247 21.46C77.7247 20.7933 77.878 20.2133 78.1847 19.72C78.5047 19.2267 78.938 18.8467 79.4847 18.58C80.0314 18.3 80.6514 18.16 81.3447 18.16C82.2914 18.16 83.058 18.38 83.6447 18.82C84.2447 19.2467 84.6514 19.86 84.8647 20.66L83.6447 20.5V18.14C83.6447 17.7667 83.5114 17.4333 83.2447 17.14C82.978 16.8467 82.5447 16.7 81.9447 16.7C81.5714 16.7 81.158 16.7467 80.7047 16.84C80.2514 16.92 79.778 17.08 79.2847 17.32L78.5047 15.4C79.078 15.12 79.6847 14.9 80.3247 14.74C80.978 14.58 81.6314 14.5 82.2847 14.5C83.178 14.5 83.918 14.66 84.5047 14.98C85.0914 15.3 85.5314 15.74 85.8247 16.3C86.118 16.86 86.2647 17.5 86.2647 18.22V24.5H84.1847L83.6247 22.64L84.8647 22.28C84.638 23.0667 84.218 23.68 83.6047 24.12C83.0047 24.56 82.2447 24.78 81.3247 24.78ZM82.0447 22.78C82.5247 22.78 82.9114 22.66 83.2047 22.42C83.498 22.18 83.6447 21.86 83.6447 21.46C83.6447 21.0467 83.498 20.7267 83.2047 20.5C82.9114 20.26 82.5247 20.14 82.0447 20.14C81.5647 20.14 81.178 20.26 80.8847 20.5C80.5914 20.7267 80.4447 21.0467 80.4447 21.46C80.4447 21.86 80.5914 22.18 80.8847 22.42C81.178 22.66 81.5647 22.78 82.0447 22.78ZM93.2433 24.74C92.3899 24.74 91.6366 24.5267 90.9833 24.1C90.3433 23.6733 89.8433 23.08 89.4833 22.32C89.1233 21.5467 88.9433 20.64 88.9433 19.6C88.9433 18.52 89.1166 17.6 89.4633 16.84C89.8233 16.08 90.3233 15.5 90.9633 15.1C91.6033 14.7 92.3566 14.5 93.2233 14.5C94.1166 14.5 94.9033 14.7133 95.5833 15.14C96.2633 15.5667 96.7899 16.1667 97.1633 16.94C97.5499 17.7 97.7433 18.5867 97.7433 19.6C97.7433 20.6 97.5499 21.4867 97.1633 22.26C96.7899 23.0333 96.2633 23.64 95.5833 24.08C94.9166 24.52 94.1366 24.74 93.2433 24.74ZM87.9833 24.5V10.88H90.6033V17.28H90.4033V22.18H90.6033L89.9433 24.5H87.9833ZM92.7833 22.32C93.4499 22.32 93.9966 22.0667 94.4233 21.56C94.8633 21.0533 95.0833 20.4 95.0833 19.6C95.0833 18.8 94.8633 18.1533 94.4233 17.66C93.9966 17.1533 93.4499 16.9 92.7833 16.9C92.1166 16.9 91.5633 17.1533 91.1233 17.66C90.6833 18.1533 90.4633 18.8067 90.4633 19.62C90.4633 20.42 90.6833 21.0733 91.1233 21.58C91.5633 22.0733 92.1166 22.32 92.7833 22.32ZM104.151 24.74C103.285 24.74 102.531 24.54 101.891 24.14C101.251 23.7267 100.751 23.14 100.391 22.38C100.045 21.62 99.8714 20.7 99.8714 19.62C99.8714 18.5667 100.051 17.66 100.411 16.9C100.771 16.14 101.271 15.5533 101.911 15.14C102.565 14.7133 103.318 14.5 104.171 14.5C105.065 14.5 105.845 14.72 106.511 15.16C107.191 15.5867 107.718 16.1867 108.091 16.96C108.478 17.72 108.671 18.6067 108.671 19.62C108.671 20.62 108.478 21.5067 108.091 22.28C107.718 23.0533 107.191 23.66 106.511 24.1C105.831 24.5267 105.045 24.74 104.151 24.74ZM98.9114 28.3V14.72H100.871L101.531 17.04H101.331V21.94H101.531V28.3H98.9114ZM103.711 22.32C104.378 22.32 104.925 22.0733 105.351 21.58C105.791 21.0733 106.011 20.42 106.011 19.62C106.011 18.82 105.791 18.1667 105.351 17.66C104.925 17.1533 104.378 16.9 103.711 16.9C103.045 16.9 102.491 17.1533 102.051 17.66C101.611 18.1533 101.391 18.8067 101.391 19.62C101.391 20.42 101.611 21.0733 102.051 21.58C102.491 22.0733 103.045 22.32 103.711 22.32ZM109.8 24.5V10.88H112.42V24.5H109.8ZM116.1 24.5V18.56C116.1 17.96 115.98 17.56 115.74 17.36C115.514 17.16 115.22 17.06 114.86 17.06C114.527 17.06 114.187 17.1267 113.84 17.26C113.494 17.38 113.167 17.56 112.86 17.8C112.567 18.0267 112.314 18.2867 112.1 18.58L111.46 16.56C111.807 16.16 112.2 15.8067 112.64 15.5C113.094 15.1933 113.574 14.9533 114.08 14.78C114.587 14.5933 115.12 14.5 115.68 14.5C116.347 14.5 116.88 14.6133 117.28 14.84C117.694 15.0667 118 15.3733 118.2 15.76C118.414 16.1467 118.554 16.5867 118.62 17.08C118.687 17.56 118.72 18.06 118.72 18.58V24.5H116.1ZM123.397 24.78C122.677 24.78 122.043 24.6467 121.497 24.38C120.95 24.1 120.53 23.7133 120.237 23.22C119.943 22.7133 119.797 22.1267 119.797 21.46C119.797 20.7933 119.95 20.2133 120.257 19.72C120.577 19.2267 121.01 18.8467 121.557 18.58C122.103 18.3 122.723 18.16 123.417 18.16C124.363 18.16 125.13 18.38 125.717 18.82C126.317 19.2467 126.723 19.86 126.937 20.66L125.717 20.5V18.14C125.717 17.7667 125.583 17.4333 125.317 17.14C125.05 16.8467 124.617 16.7 124.017 16.7C123.643 16.7 123.23 16.7467 122.777 16.84C122.323 16.92 121.85 17.08 121.357 17.32L120.577 15.4C121.15 15.12 121.757 14.9 122.397 14.74C123.05 14.58 123.703 14.5 124.357 14.5C125.25 14.5 125.99 14.66 126.577 14.98C127.163 15.3 127.603 15.74 127.897 16.3C128.19 16.86 128.337 17.5 128.337 18.22V24.5H126.257L125.697 22.64L126.937 22.28C126.71 23.0667 126.29 23.68 125.677 24.12C125.077 24.56 124.317 24.78 123.397 24.78ZM124.117 22.78C124.597 22.78 124.983 22.66 125.277 22.42C125.57 22.18 125.717 21.86 125.717 21.46C125.717 21.0467 125.57 20.7267 125.277 20.5C124.983 20.26 124.597 20.14 124.117 20.14C123.637 20.14 123.25 20.26 122.957 20.5C122.663 20.7267 122.517 21.0467 122.517 21.46C122.517 21.86 122.663 22.18 122.957 22.42C123.25 22.66 123.637 22.78 124.117 22.78ZM132.015 14.72L132.675 17.42V24.5H130.055V14.72H132.015ZM132.135 18.76L131.655 18.54V16.54L131.835 16.32C131.982 16.08 132.202 15.82 132.495 15.54C132.802 15.26 133.148 15.02 133.535 14.82C133.935 14.6067 134.348 14.5 134.775 14.5C134.988 14.5 135.182 14.5133 135.355 14.54C135.528 14.5667 135.662 14.6133 135.755 14.68V17.06H135.115C134.248 17.06 133.582 17.2 133.115 17.48C132.648 17.7467 132.322 18.1733 132.135 18.76ZM136.862 24.5V14.72H138.822L139.362 16.6L138.522 16.56C138.869 16.16 139.249 15.8067 139.662 15.5C140.076 15.1933 140.522 14.9533 141.002 14.78C141.496 14.5933 142.009 14.5 142.542 14.5C143.209 14.5 143.742 14.6133 144.142 14.84C144.542 15.0667 144.836 15.3733 145.022 15.76C145.222 16.1467 145.356 16.5867 145.422 17.08C145.502 17.56 145.542 18.06 145.542 18.58V24.5H142.922V18.56C142.922 17.96 142.802 17.56 142.562 17.36C142.322 17.16 142.036 17.06 141.702 17.06C141.222 17.06 140.756 17.2067 140.302 17.5C139.849 17.78 139.469 18.14 139.162 18.58L138.822 17.22H139.482V24.5H136.862ZM148.962 24.5V18.56C148.962 17.96 148.842 17.56 148.602 17.36C148.376 17.16 148.096 17.06 147.762 17.06C147.282 17.06 146.816 17.2067 146.362 17.5C145.909 17.78 145.529 18.14 145.222 18.58L144.562 16.56C144.909 16.16 145.289 15.8067 145.702 15.5C146.129 15.1933 146.582 14.9533 147.062 14.78C147.556 14.5933 148.069 14.5 148.602 14.5C149.256 14.5 149.782 14.6133 150.182 14.84C150.582 15.0667 150.882 15.3733 151.082 15.76C151.282 16.1467 151.416 16.5867 151.482 17.08C151.562 17.56 151.602 18.06 151.602 18.58V24.5H148.962Z" fill="#3A966C"/>
<path d="M40.36 24.5V10.88H45.04C46.4133 10.88 47.6067 11.1533 48.62 11.7C49.6467 12.2467 50.44 13.0267 51 14.04C51.5733 15.0533 51.86 16.2733 51.86 17.7C51.86 19.14 51.5733 20.3667 51 21.38C50.44 22.3933 49.6467 23.1667 48.62 23.7C47.5933 24.2333 46.3933 24.5 45.02 24.5H40.36ZM42.98 22.88L42 22H44.84C45.68 22 46.42 21.8467 47.06 21.54C47.7133 21.2333 48.2267 20.7667 48.6 20.14C48.9733 19.5133 49.16 18.7 49.16 17.7C49.16 16.74 48.9733 15.94 48.6 15.3C48.24 14.66 47.7333 14.18 47.08 13.86C46.44 13.54 45.7 13.38 44.86 13.38H41.86L42.98 12.58V22.88ZM57.658 24.74C56.6446 24.74 55.7513 24.5267 54.978 24.1C54.218 23.66 53.6246 23.06 53.198 22.3C52.7713 21.5267 52.558 20.6333 52.558 19.62C52.558 18.6067 52.7713 17.72 53.198 16.96C53.6246 16.1867 54.218 15.5867 54.978 15.16C55.7513 14.72 56.6446 14.5 57.658 14.5C58.6713 14.5 59.558 14.72 60.318 15.16C61.0913 15.5867 61.6913 16.1867 62.118 16.96C62.5446 17.72 62.758 18.6067 62.758 19.62C62.758 20.6333 62.5446 21.5267 62.118 22.3C61.6913 23.06 61.0913 23.66 60.318 24.1C59.558 24.5267 58.6713 24.74 57.658 24.74ZM57.658 22.2C58.378 22.2 58.9646 21.96 59.418 21.48C59.8713 21 60.098 20.38 60.098 19.62C60.098 18.8467 59.8713 18.22 59.418 17.74C58.9646 17.26 58.378 17.02 57.658 17.02C56.938 17.02 56.3513 17.26 55.898 17.74C55.458 18.2067 55.238 18.8267 55.238 19.6C55.238 20.3733 55.458 21 55.898 21.48C56.3513 21.96 56.938 22.2 57.658 22.2ZM68.1727 24.74C67.1727 24.74 66.2993 24.52 65.5527 24.08C64.806 23.64 64.226 23.0333 63.8127 22.26C63.4127 21.4867 63.2127 20.6 63.2127 19.6C63.2127 18.6133 63.4127 17.7333 63.8127 16.96C64.226 16.1867 64.806 15.5867 65.5527 15.16C66.2993 14.72 67.1727 14.5 68.1727 14.5C69.2127 14.5 70.126 14.7667 70.9127 15.3C71.7127 15.82 72.286 16.5267 72.6327 17.42L70.2327 18.46C70.0327 18.0067 69.7593 17.6533 69.4127 17.4C69.0793 17.1467 68.6593 17.02 68.1527 17.02C67.4993 17.02 66.9527 17.2533 66.5127 17.72C66.0727 18.1733 65.8527 18.8 65.8527 19.6C65.8527 20.4133 66.0727 21.0467 66.5127 21.5C66.9527 21.9533 67.4993 22.18 68.1527 22.18C68.6593 22.18 69.0793 22.06 69.4127 21.82C69.7593 21.5667 70.0327 21.2133 70.2327 20.76L72.6327 21.8C72.286 22.68 71.7127 23.3933 70.9127 23.94C70.1127 24.4733 69.1993 24.74 68.1727 24.74ZM76.008 24.6C75.568 24.6 75.1613 24.5067 74.788 24.32C74.428 24.1333 74.1346 23.8467 73.908 23.46C73.6946 23.06 73.588 22.5467 73.588 21.92V10.88H76.188V21C76.188 21.4667 76.2813 21.7733 76.468 21.92C76.6546 22.0533 76.8813 22.12 77.148 22.12V24.46C77.0013 24.5133 76.8213 24.5467 76.608 24.56C76.408 24.5867 76.208 24.6 76.008 24.6ZM81.3247 24.78C80.6047 24.78 79.9714 24.6467 79.4247 24.38C78.878 24.1 78.458 23.7133 78.1647 23.22C77.8714 22.7133 77.7247 22.1267 77.7247 21.46C77.7247 20.7933 77.878 20.2133 78.1847 19.72C78.5047 19.2267 78.938 18.8467 79.4847 18.58C80.0314 18.3 80.6514 18.16 81.3447 18.16C82.2914 18.16 83.058 18.38 83.6447 18.82C84.2447 19.2467 84.6514 19.86 84.8647 20.66L83.6447 20.5V18.14C83.6447 17.7667 83.5114 17.4333 83.2447 17.14C82.978 16.8467 82.5447 16.7 81.9447 16.7C81.5714 16.7 81.158 16.7467 80.7047 16.84C80.2514 16.92 79.778 17.08 79.2847 17.32L78.5047 15.4C79.078 15.12 79.6847 14.9 80.3247 14.74C80.978 14.58 81.6314 14.5 82.2847 14.5C83.178 14.5 83.918 14.66 84.5047 14.98C85.0914 15.3 85.5314 15.74 85.8247 16.3C86.118 16.86 86.2647 17.5 86.2647 18.22V24.5H84.1847L83.6247 22.64L84.8647 22.28C84.638 23.0667 84.218 23.68 83.6047 24.12C83.0047 24.56 82.2447 24.78 81.3247 24.78ZM82.0447 22.78C82.5247 22.78 82.9114 22.66 83.2047 22.42C83.498 22.18 83.6447 21.86 83.6447 21.46C83.6447 21.0467 83.498 20.7267 83.2047 20.5C82.9114 20.26 82.5247 20.14 82.0447 20.14C81.5647 20.14 81.178 20.26 80.8847 20.5C80.5914 20.7267 80.4447 21.0467 80.4447 21.46C80.4447 21.86 80.5914 22.18 80.8847 22.42C81.178 22.66 81.5647 22.78 82.0447 22.78ZM93.2433 24.74C92.3899 24.74 91.6366 24.5267 90.9833 24.1C90.3433 23.6733 89.8433 23.08 89.4833 22.32C89.1233 21.5467 88.9433 20.64 88.9433 19.6C88.9433 18.52 89.1166 17.6 89.4633 16.84C89.8233 16.08 90.3233 15.5 90.9633 15.1C91.6033 14.7 92.3566 14.5 93.2233 14.5C94.1166 14.5 94.9033 14.7133 95.5833 15.14C96.2633 15.5667 96.7899 16.1667 97.1633 16.94C97.5499 17.7 97.7433 18.5867 97.7433 19.6C97.7433 20.6 97.5499 21.4867 97.1633 22.26C96.7899 23.0333 96.2633 23.64 95.5833 24.08C94.9166 24.52 94.1366 24.74 93.2433 24.74ZM87.9833 24.5V10.88H90.6033V17.28H90.4033V22.18H90.6033L89.9433 24.5H87.9833ZM92.7833 22.32C93.4499 22.32 93.9966 22.0667 94.4233 21.56C94.8633 21.0533 95.0833 20.4 95.0833 19.6C95.0833 18.8 94.8633 18.1533 94.4233 17.66C93.9966 17.1533 93.4499 16.9 92.7833 16.9C92.1166 16.9 91.5633 17.1533 91.1233 17.66C90.6833 18.1533 90.4633 18.8067 90.4633 19.62C90.4633 20.42 90.6833 21.0733 91.1233 21.58C91.5633 22.0733 92.1166 22.32 92.7833 22.32ZM104.151 24.74C103.285 24.74 102.531 24.54 101.891 24.14C101.251 23.7267 100.751 23.14 100.391 22.38C100.045 21.62 99.8714 20.7 99.8714 19.62C99.8714 18.5667 100.051 17.66 100.411 16.9C100.771 16.14 101.271 15.5533 101.911 15.14C102.565 14.7133 103.318 14.5 104.171 14.5C105.065 14.5 105.845 14.72 106.511 15.16C107.191 15.5867 107.718 16.1867 108.091 16.96C108.478 17.72 108.671 18.6067 108.671 19.62C108.671 20.62 108.478 21.5067 108.091 22.28C107.718 23.0533 107.191 23.66 106.511 24.1C105.831 24.5267 105.045 24.74 104.151 24.74ZM98.9114 28.3V14.72H100.871L101.531 17.04H101.331V21.94H101.531V28.3H98.9114ZM103.711 22.32C104.378 22.32 104.925 22.0733 105.351 21.58C105.791 21.0733 106.011 20.42 106.011 19.62C106.011 18.82 105.791 18.1667 105.351 17.66C104.925 17.1533 104.378 16.9 103.711 16.9C103.045 16.9 102.491 17.1533 102.051 17.66C101.611 18.1533 101.391 18.8067 101.391 19.62C101.391 20.42 101.611 21.0733 102.051 21.58C102.491 22.0733 103.045 22.32 103.711 22.32ZM109.8 24.5V10.88H112.42V24.5H109.8ZM116.1 24.5V18.56C116.1 17.96 115.98 17.56 115.74 17.36C115.514 17.16 115.22 17.06 114.86 17.06C114.527 17.06 114.187 17.1267 113.84 17.26C113.494 17.38 113.167 17.56 112.86 17.8C112.567 18.0267 112.314 18.2867 112.1 18.58L111.46 16.56C111.807 16.16 112.2 15.8067 112.64 15.5C113.094 15.1933 113.574 14.9533 114.08 14.78C114.587 14.5933 115.12 14.5 115.68 14.5C116.347 14.5 116.88 14.6133 117.28 14.84C117.694 15.0667 118 15.3733 118.2 15.76C118.414 16.1467 118.554 16.5867 118.62 17.08C118.687 17.56 118.72 18.06 118.72 18.58V24.5H116.1ZM123.397 24.78C122.677 24.78 122.043 24.6467 121.497 24.38C120.95 24.1 120.53 23.7133 120.237 23.22C119.943 22.7133 119.797 22.1267 119.797 21.46C119.797 20.7933 119.95 20.2133 120.257 19.72C120.577 19.2267 121.01 18.8467 121.557 18.58C122.103 18.3 122.723 18.16 123.417 18.16C124.363 18.16 125.13 18.38 125.717 18.82C126.317 19.2467 126.723 19.86 126.937 20.66L125.717 20.5V18.14C125.717 17.7667 125.583 17.4333 125.317 17.14C125.05 16.8467 124.617 16.7 124.017 16.7C123.643 16.7 123.23 16.7467 122.777 16.84C122.323 16.92 121.85 17.08 121.357 17.32L120.577 15.4C121.15 15.12 121.757 14.9 122.397 14.74C123.05 14.58 123.703 14.5 124.357 14.5C125.25 14.5 125.99 14.66 126.577 14.98C127.163 15.3 127.603 15.74 127.897 16.3C128.19 16.86 128.337 17.5 128.337 18.22V24.5H126.257L125.697 22.64L126.937 22.28C126.71 23.0667 126.29 23.68 125.677 24.12C125.077 24.56 124.317 24.78 123.397 24.78ZM124.117 22.78C124.597 22.78 124.983 22.66 125.277 22.42C125.57 22.18 125.717 21.86 125.717 21.46C125.717 21.0467 125.57 20.7267 125.277 20.5C124.983 20.26 124.597 20.14 124.117 20.14C123.637 20.14 123.25 20.26 122.957 20.5C122.663 20.7267 122.517 21.0467 122.517 21.46C122.517 21.86 122.663 22.18 122.957 22.42C123.25 22.66 123.637 22.78 124.117 22.78ZM132.015 14.72L132.675 17.42V24.5H130.055V14.72H132.015ZM132.135 18.76L131.655 18.54V16.54L131.835 16.32C131.982 16.08 132.202 15.82 132.495 15.54C132.802 15.26 133.148 15.02 133.535 14.82C133.935 14.6067 134.348 14.5 134.775 14.5C134.988 14.5 135.182 14.5133 135.355 14.54C135.528 14.5667 135.662 14.6133 135.755 14.68V17.06H135.115C134.248 17.06 133.582 17.2 133.115 17.48C132.648 17.7467 132.322 18.1733 132.135 18.76ZM136.862 24.5V14.72H138.822L139.362 16.6L138.522 16.56C138.869 16.16 139.249 15.8067 139.662 15.5C140.076 15.1933 140.522 14.9533 141.002 14.78C141.496 14.5933 142.009 14.5 142.542 14.5C143.209 14.5 143.742 14.6133 144.142 14.84C144.542 15.0667 144.836 15.3733 145.022 15.76C145.222 16.1467 145.356 16.5867 145.422 17.08C145.502 17.56 145.542 18.06 145.542 18.58V24.5H142.922V18.56C142.922 17.96 142.802 17.56 142.562 17.36C142.322 17.16 142.036 17.06 141.702 17.06C141.222 17.06 140.756 17.2067 140.302 17.5C139.849 17.78 139.469 18.14 139.162 18.58L138.822 17.22H139.482V24.5H136.862ZM148.962 24.5V18.56C148.962 17.96 148.842 17.56 148.602 17.36C148.376 17.16 148.096 17.06 147.762 17.06C147.282 17.06 146.816 17.2067 146.362 17.5C145.909 17.78 145.529 18.14 145.222 18.58L144.562 16.56C144.909 16.16 145.289 15.8067 145.702 15.5C146.129 15.1933 146.582 14.9533 147.062 14.78C147.556 14.5933 148.069 14.5 148.602 14.5C149.256 14.5 149.782 14.6133 150.182 14.84C150.582 15.0667 150.882 15.3733 151.082 15.76C151.282 16.1467 151.416 16.5867 151.482 17.08C151.562 17.56 151.602 18.06 151.602 18.58V24.5H148.962Z" fill="black" fill-opacity="0.2"/>
</svg>
