<svg width="136" height="35" viewBox="0 0 136 35" fill="none" xmlns="http://www.w3.org/2000/svg">
<path d="M3.28125 5.46875V17.9441L3.58859 18.2864L9.84375 24.5405V30.625H16.4062V24.0625C16.4106 24.0023 16.5659 20.6117 13.7397 18.7983C13.732 18.7939 13.7484 18.7688 13.7397 18.7655C13.732 18.76 13.7145 18.7688 13.7069 18.7655C12.4108 17.9189 11.0742 17.2277 10.1522 16.5091C9.22031 15.7872 8.75 15.1889 8.75 14.2188H6.5625C6.5625 15.9873 7.59609 17.3294 8.78391 18.2525C9.97172 19.1756 11.352 19.8548 12.5092 20.6106H12.5442C14.2953 21.7087 14.2188 24.0286 14.2188 24.0286V28.4375H12.0312V23.6184L11.7239 23.2761L5.46875 17.022V5.46875H3.28125ZM29.5312 5.46875V17.022L23.2761 23.2761L22.9688 23.6184V28.4375H20.7812V23.9936C20.7812 23.9936 20.7047 21.7077 22.4558 20.6106H22.4908C23.6447 19.8548 25.0283 19.1734 26.2161 18.2514C27.4039 17.3305 28.4375 15.9873 28.4375 14.2188H26.25C26.25 15.1889 25.7797 15.7872 24.8489 16.5091C23.9258 17.2266 22.5892 17.9178 21.2942 18.7644C21.2855 18.7688 21.268 18.76 21.2592 18.7644V18.7994C18.457 20.5931 18.5905 23.9477 18.5938 24.0625V30.625H25.1562V24.5405L31.4114 18.2864L31.7188 17.9441V5.46875H29.5312Z" fill="#3A966C"/>
<path d="M21.1458 2.91675C18.8125 2.91675 17.5 4.86144 17.5 5.83341C17.5 4.86144 16.1875 2.91675 13.8542 2.91675C11.5208 2.91675 10.9375 4.86144 10.9375 5.83341C10.9375 10.9376 17.5 14.5834 17.5 14.5834C17.5 14.5834 24.0625 10.9376 24.0625 5.83341C24.0625 4.86144 23.4792 2.91675 21.1458 2.91675Z" fill="#3A966C" stroke="#3A966C" stroke-width="2" stroke-linecap="round" stroke-linejoin="round"/>
<path d="M39.52 24.5L41.96 10.88H44.3L47.72 20.4H47.64L51.06 10.88H53.4L55.84 24.5H53.18L52.2 18.28C52.0533 17.44 51.9267 16.6 51.82 15.76C51.7267 14.9067 51.6533 14.06 51.6 13.22H52.32C52.0933 14.1667 51.8667 15.04 51.64 15.84C51.4267 16.6267 51.1733 17.4333 50.88 18.26L48.7 24.32H46.66L44.48 18.26C44.1867 17.4333 43.9267 16.6267 43.7 15.84C43.4733 15.04 43.2533 14.1667 43.04 13.22H43.74C43.7 14.06 43.6267 14.9067 43.52 15.76C43.4267 16.6 43.3067 17.44 43.16 18.28L42.18 24.5H39.52ZM60.0833 23.6L56.1833 14.72H58.8633L62.4833 22.98L60.0833 23.6ZM57.8433 28.3L63.8233 14.72H66.5033L60.5233 28.3H57.8433ZM72.4022 24.5V10.88H77.0822C78.4555 10.88 79.6489 11.1533 80.6622 11.7C81.6889 12.2467 82.4822 13.0267 83.0422 14.04C83.6155 15.0533 83.9022 16.2733 83.9022 17.7C83.9022 19.14 83.6155 20.3667 83.0422 21.38C82.4822 22.3933 81.6889 23.1667 80.6622 23.7C79.6355 24.2333 78.4355 24.5 77.0622 24.5H72.4022ZM75.0222 22.88L74.0422 22H76.8822C77.7222 22 78.4622 21.8467 79.1022 21.54C79.7555 21.2333 80.2689 20.7667 80.6422 20.14C81.0155 19.5133 81.2022 18.7 81.2022 17.7C81.2022 16.74 81.0155 15.94 80.6422 15.3C80.2822 14.66 79.7755 14.18 79.1222 13.86C78.4822 13.54 77.7422 13.38 76.9022 13.38H73.9022L75.0222 12.58V22.88ZM89.7002 24.74C88.6868 24.74 87.7935 24.5267 87.0202 24.1C86.2602 23.66 85.6668 23.06 85.2402 22.3C84.8135 21.5267 84.6002 20.6333 84.6002 19.62C84.6002 18.6067 84.8135 17.72 85.2402 16.96C85.6668 16.1867 86.2602 15.5867 87.0202 15.16C87.7935 14.72 88.6868 14.5 89.7002 14.5C90.7135 14.5 91.6002 14.72 92.3602 15.16C93.1335 15.5867 93.7335 16.1867 94.1602 16.96C94.5868 17.72 94.8002 18.6067 94.8002 19.62C94.8002 20.6333 94.5868 21.5267 94.1602 22.3C93.7335 23.06 93.1335 23.66 92.3602 24.1C91.6002 24.5267 90.7135 24.74 89.7002 24.74ZM89.7002 22.2C90.4202 22.2 91.0068 21.96 91.4602 21.48C91.9135 21 92.1402 20.38 92.1402 19.62C92.1402 18.8467 91.9135 18.22 91.4602 17.74C91.0068 17.26 90.4202 17.02 89.7002 17.02C88.9802 17.02 88.3935 17.26 87.9402 17.74C87.5002 18.2067 87.2802 18.8267 87.2802 19.6C87.2802 20.3733 87.5002 21 87.9402 21.48C88.3935 21.96 88.9802 22.2 89.7002 22.2ZM100.215 24.74C99.2148 24.74 98.3415 24.52 97.5948 24.08C96.8482 23.64 96.2682 23.0333 95.8548 22.26C95.4548 21.4867 95.2548 20.6 95.2548 19.6C95.2548 18.6133 95.4548 17.7333 95.8548 16.96C96.2682 16.1867 96.8482 15.5867 97.5948 15.16C98.3415 14.72 99.2148 14.5 100.215 14.5C101.255 14.5 102.168 14.7667 102.955 15.3C103.755 15.82 104.328 16.5267 104.675 17.42L102.275 18.46C102.075 18.0067 101.802 17.6533 101.455 17.4C101.122 17.1467 100.702 17.02 100.195 17.02C99.5415 17.02 98.9948 17.2533 98.5548 17.72C98.1148 18.1733 97.8948 18.8 97.8948 19.6C97.8948 20.4133 98.1148 21.0467 98.5548 21.5C98.9948 21.9533 99.5415 22.18 100.195 22.18C100.702 22.18 101.122 22.06 101.455 21.82C101.802 21.5667 102.075 21.2133 102.275 20.76L104.675 21.8C104.328 22.68 103.755 23.3933 102.955 23.94C102.155 24.4733 101.242 24.74 100.215 24.74ZM114.03 24.5H105.87V10.88H108.49V22.82L107.91 22H114.03V24.5ZM118.191 24.78C117.471 24.78 116.838 24.6467 116.291 24.38C115.744 24.1 115.324 23.7133 115.031 23.22C114.738 22.7133 114.591 22.1267 114.591 21.46C114.591 20.7933 114.744 20.2133 115.051 19.72C115.371 19.2267 115.804 18.8467 116.351 18.58C116.898 18.3 117.518 18.16 118.211 18.16C119.158 18.16 119.924 18.38 120.511 18.82C121.111 19.2467 121.518 19.86 121.731 20.66L120.511 20.5V18.14C120.511 17.7667 120.378 17.4333 120.111 17.14C119.844 16.8467 119.411 16.7 118.811 16.7C118.438 16.7 118.024 16.7467 117.571 16.84C117.118 16.92 116.644 17.08 116.151 17.32L115.371 15.4C115.944 15.12 116.551 14.9 117.191 14.74C117.844 14.58 118.498 14.5 119.151 14.5C120.044 14.5 120.784 14.66 121.371 14.98C121.958 15.3 122.398 15.74 122.691 16.3C122.984 16.86 123.131 17.5 123.131 18.22V24.5H121.051L120.491 22.64L121.731 22.28C121.504 23.0667 121.084 23.68 120.471 24.12C119.871 24.56 119.111 24.78 118.191 24.78ZM118.911 22.78C119.391 22.78 119.778 22.66 120.071 22.42C120.364 22.18 120.511 21.86 120.511 21.46C120.511 21.0467 120.364 20.7267 120.071 20.5C119.778 20.26 119.391 20.14 118.911 20.14C118.431 20.14 118.044 20.26 117.751 20.5C117.458 20.7267 117.311 21.0467 117.311 21.46C117.311 21.86 117.458 22.18 117.751 22.42C118.044 22.66 118.431 22.78 118.911 22.78ZM130.11 24.74C129.256 24.74 128.503 24.5267 127.85 24.1C127.21 23.6733 126.71 23.08 126.35 22.32C125.99 21.5467 125.81 20.64 125.81 19.6C125.81 18.52 125.983 17.6 126.33 16.84C126.69 16.08 127.19 15.5 127.83 15.1C128.47 14.7 129.223 14.5 130.09 14.5C130.983 14.5 131.77 14.7133 132.45 15.14C133.13 15.5667 133.656 16.1667 134.03 16.94C134.416 17.7 134.61 18.5867 134.61 19.6C134.61 20.6 134.416 21.4867 134.03 22.26C133.656 23.0333 133.13 23.64 132.45 24.08C131.783 24.52 131.003 24.74 130.11 24.74ZM124.85 24.5V10.88H127.47V17.28H127.27V22.18H127.47L126.81 24.5H124.85ZM129.65 22.32C130.316 22.32 130.863 22.0667 131.29 21.56C131.73 21.0533 131.95 20.4 131.95 19.6C131.95 18.8 131.73 18.1533 131.29 17.66C130.863 17.1533 130.316 16.9 129.65 16.9C128.983 16.9 128.43 17.1533 127.99 17.66C127.55 18.1533 127.33 18.8067 127.33 19.62C127.33 20.42 127.55 21.0733 127.99 21.58C128.43 22.0733 128.983 22.32 129.65 22.32Z" fill="#3A966C"/>
</svg>
