<svg width="24" height="26" viewBox="0 0 24 26" fill="none" xmlns="http://www.w3.org/2000/svg">
<path d="M7.44008 23.3025C7.98402 23.9903 8.67714 24.5455 9.46709 24.9262C10.2571 25.3069 11.1232 25.5031 12.0001 25.5C12.877 25.5031 13.7431 25.3069 14.5331 24.9262C15.323 24.5455 16.0161 23.9903 16.5601 23.3025C13.5339 23.7121 10.4663 23.7121 7.44008 23.3025ZM20.4376 9.25V10.13C20.4376 11.1862 20.7376 12.2187 21.3026 13.0975L22.6876 15.2512C23.9513 17.2187 22.9863 19.8925 20.7876 20.5137C15.0422 22.1408 8.95794 22.1408 3.21258 20.5137C1.01383 19.8925 0.0488276 17.2187 1.31258 15.2512L2.69758 13.0975C3.26409 12.2115 3.56472 11.1816 3.56383 10.13V9.25C3.56383 4.4175 7.34133 0.5 12.0001 0.5C16.6588 0.5 20.4376 4.4175 20.4376 9.25Z" fill="#FF505B"/>
</svg>
