<svg width="20" height="12" viewBox="0 0 20 12" fill="none" xmlns="http://www.w3.org/2000/svg">
<path fill-rule="evenodd" clip-rule="evenodd" d="M10 10.6667C6.404 10.6667 3.37333 8.82933 1.46133 6C3.37333 3.17067 6.404 1.33333 10 1.33333C13.596 1.33333 16.6267 3.17067 18.5387 6C16.6267 8.82933 13.596 10.6667 10 10.6667ZM10 0C5.744 0 2.208 2.27467 0.101335 5.64667C0.0351131 5.75262 0 5.87505 0 6C0 6.12495 0.0351131 6.24738 0.101335 6.35333C2.208 9.72533 5.744 12 10 12C14.256 12 17.792 9.72533 19.8987 6.35333C19.9649 6.24738 20 6.12495 20 6C20 5.87505 19.9649 5.75262 19.8987 5.64667C17.792 2.27467 14.256 0 10 0ZM10 8.66667C10.7072 8.66667 11.3855 8.38571 11.8856 7.88562C12.3857 7.38552 12.6667 6.70724 12.6667 6C12.6667 5.29276 12.3857 4.61448 11.8856 4.11438C11.3855 3.61428 10.7072 3.33333 10 3.33333C9.29276 3.33333 8.61448 3.61428 8.11438 4.11438C7.61429 4.61448 7.33333 5.29276 7.33333 6C7.33333 6.70724 7.61429 7.38552 8.11438 7.88562C8.61448 8.38571 9.29276 8.66667 10 8.66667Z" fill="white"/>
</svg>
