<svg width="20" height="18" viewBox="0 0 20 18" fill="none" xmlns="http://www.w3.org/2000/svg">
<path fill-rule="evenodd" clip-rule="evenodd" d="M0.144535 6.25C0.144535 4.60897 0.796431 3.03516 1.95681 1.87478C3.11719 0.714396 4.69101 0.0625 6.33204 0.0625H9.9987C11.6397 0.0625 13.2135 0.714396 14.3739 1.87478C15.5343 3.03516 16.1862 4.60897 16.1862 6.25C16.1862 7.89103 15.5343 9.46484 14.3739 10.6252C13.2135 11.7856 11.6397 12.4375 9.9987 12.4375H8.16537C7.98303 12.4375 7.80816 12.3651 7.67923 12.2361C7.5503 12.1072 7.47787 11.9323 7.47787 11.75C7.47787 11.5677 7.5503 11.3928 7.67923 11.2639C7.80816 11.1349 7.98303 11.0625 8.16537 11.0625H9.9987C10.6307 11.0625 11.2565 10.938 11.8404 10.6962C12.4242 10.4543 12.9548 10.0998 13.4017 9.65295C13.8485 9.20607 14.203 8.67554 14.4449 8.09166C14.6867 7.50778 14.8112 6.88199 14.8112 6.25C14.8112 5.61801 14.6867 4.99222 14.4449 4.40834C14.203 3.82446 13.8485 3.29393 13.4017 2.84705C12.9548 2.40017 12.4242 2.04568 11.8404 1.80383C11.2565 1.56198 10.6307 1.4375 9.9987 1.4375H6.33204C5.40303 1.43752 4.49388 1.70643 3.71434 2.21177C2.9348 2.71712 2.31819 3.43729 1.93893 4.28536C1.55967 5.13342 1.43399 6.07314 1.57704 6.99106C1.7201 7.90899 2.12578 8.76589 2.74512 9.45833C2.86543 9.59442 2.92699 9.77259 2.91636 9.95393C2.90573 10.1353 2.82377 10.305 2.68838 10.4261C2.55299 10.5472 2.37518 10.6098 2.19379 10.6002C2.0124 10.5907 1.84217 10.5097 1.72029 10.375C0.704077 9.24152 0.142845 7.77232 0.144535 6.25ZM9.9987 6.9375C9.36672 6.9375 8.74092 7.06198 8.15704 7.30383C7.57316 7.54568 7.04263 7.90017 6.59575 8.34705C6.14887 8.79393 5.79438 9.32446 5.55253 9.90834C5.31068 10.4922 5.1862 11.118 5.1862 11.75C5.1862 12.382 5.31068 13.0078 5.55253 13.5917C5.79438 14.1755 6.14887 14.7061 6.59575 15.153C7.04263 15.5998 7.57316 15.9543 8.15704 16.1962C8.74092 16.438 9.36672 16.5625 9.9987 16.5625H13.6654C14.5944 16.5625 15.5035 16.2936 16.2831 15.7882C17.0626 15.2829 17.6792 14.5627 18.0585 13.7146C18.4377 12.8666 18.5634 11.9269 18.4204 11.0089C18.2773 10.091 17.8716 9.23411 17.2523 8.54167C17.1915 8.47448 17.1446 8.39593 17.1142 8.31054C17.0839 8.22515 17.0707 8.1346 17.0755 8.04411C17.0803 7.95361 17.1029 7.86496 17.1421 7.78324C17.1812 7.70152 17.2362 7.62834 17.3037 7.56793C17.3712 7.50752 17.4501 7.46105 17.5356 7.43121C17.6212 7.40136 17.7118 7.38873 17.8023 7.39403C17.8927 7.39934 17.9813 7.42247 18.0628 7.46211C18.1442 7.50175 18.2171 7.55711 18.2771 7.625C19.0734 8.51528 19.595 9.61701 19.7789 10.7972C19.9629 11.9774 19.8013 13.1856 19.3136 14.276C18.826 15.3663 18.0332 16.2923 17.031 16.942C16.0287 17.5917 14.8598 17.9375 13.6654 17.9375H9.9987C8.35767 17.9375 6.78386 17.2856 5.62348 16.1252C4.4631 14.9648 3.8112 13.391 3.8112 11.75C3.8112 10.109 4.4631 8.53516 5.62348 7.37478C6.78386 6.2144 8.35767 5.5625 9.9987 5.5625H11.832C12.0144 5.5625 12.1892 5.63493 12.3182 5.76386C12.4471 5.8928 12.5195 6.06766 12.5195 6.25C12.5195 6.43234 12.4471 6.6072 12.3182 6.73614C12.1892 6.86507 12.0144 6.9375 11.832 6.9375H9.9987Z" fill="#8F8F8F"/>
</svg>
