<svg width="24" height="24" viewBox="0 0 24 24" fill="none" xmlns="http://www.w3.org/2000/svg">
<path d="M18.0759 1.55469L22.2489 5.90469V22.4467H6.66016V22.5007H22.3022V5.95944L18.0759 1.55469Z" fill="#909090"/>
<path d="M18.0227 1.5H6.60547V22.446H22.2475V5.90475L18.0227 1.5Z" fill="#F4F4F4"/>
<path d="M6.49172 2.625H1.69922V7.74525H16.7742V2.625H6.49172Z" fill="#7A7B7C"/>
<path d="M16.8546 7.65916H1.79688V2.53516H16.8546V7.65916Z" fill="#DD2025"/>
<path d="M6.78884 3.40001H5.80859V7.00001H6.57959V5.78576L6.74984 5.79551C6.91533 5.79323 7.07929 5.76358 7.23509 5.70776C7.37206 5.66126 7.49794 5.58695 7.60484 5.48951C7.71447 5.39759 7.8006 5.28087 7.85609 5.14901C7.93203 4.93055 7.95891 4.69804 7.93484 4.46801C7.93057 4.30365 7.90175 4.14085 7.84934 3.98501C7.80212 3.87237 7.7319 3.77083 7.64317 3.68688C7.55445 3.60293 7.44918 3.53844 7.33409 3.49751C7.23488 3.46077 7.13206 3.43462 7.02734 3.41951C6.94824 3.40663 6.86824 3.40011 6.78809 3.40001M6.64634 5.12051H6.57959V4.01051H6.72434C6.78823 4.00591 6.85233 4.01571 6.91192 4.03921C6.9715 4.06271 7.02505 4.09929 7.06859 4.14626C7.15883 4.26702 7.20704 4.41401 7.20584 4.56476C7.20584 4.74926 7.20584 4.91651 7.03934 5.03426C6.91942 5.10032 6.78287 5.13078 6.64634 5.12051ZM9.39959 3.39026C9.31634 3.39026 9.23534 3.39626 9.17834 3.39851L8.99984 3.40301H8.41484V7.00301H9.10334C9.36643 7.00978 9.62831 6.9652 9.87434 6.87176C10.0724 6.79353 10.2478 6.66693 10.3843 6.50351C10.5182 6.33938 10.6137 6.14747 10.6641 5.94176C10.7232 5.70921 10.752 5.46996 10.7496 5.23001C10.7643 4.94663 10.7423 4.66254 10.6843 4.38476C10.6288 4.18053 10.5261 3.99221 10.3843 3.83501C10.2732 3.70789 10.1365 3.60567 9.98309 3.53501C9.85171 3.47411 9.71346 3.42929 9.57134 3.40151C9.51483 3.39225 9.45761 3.38798 9.40034 3.38876M9.26384 6.34151H9.18884V4.04351H9.19859C9.35322 4.02563 9.50968 4.05354 9.64859 4.12376C9.75034 4.20501 9.83325 4.30736 9.89159 4.42376C9.95456 4.54626 9.99086 4.68072 9.99809 4.81826C10.0048 4.98326 9.99809 5.11826 9.99809 5.23001C10.0009 5.35873 9.99259 5.48746 9.97334 5.61476C9.94975 5.74531 9.90704 5.87167 9.84659 5.98976C9.77831 6.09989 9.68504 6.19239 9.57434 6.25976C9.48188 6.31977 9.37225 6.3477 9.26234 6.33926M13.0723 3.40301H11.2498V7.00301H12.0208V5.57501H12.9958V4.90601H12.0208V4.07201H13.0708V3.40301" fill="#464648"/>
<path d="M16.3365 15.1921C16.3365 15.1921 18.7275 14.7586 18.7275 15.5754C18.7275 16.3921 17.2462 16.0599 16.3365 15.1921ZM14.5687 15.2544C14.1888 15.3381 13.8186 15.461 13.464 15.6211L13.764 14.9461C14.064 14.2711 14.3752 13.3509 14.3752 13.3509C14.7323 13.954 15.1489 14.5198 15.6187 15.0399C15.265 15.0926 14.9145 15.1647 14.5687 15.2559V15.2544ZM13.6222 10.3794C13.6222 9.66761 13.8525 9.47336 14.0317 9.47336C14.211 9.47336 14.4127 9.55961 14.4195 10.1776C14.361 10.799 14.2309 11.4116 14.0317 12.0031C13.758 11.5068 13.6167 10.9484 13.6215 10.3816L13.6222 10.3794ZM10.1355 18.2664C9.40199 17.8276 11.6737 16.4769 12.0855 16.4334C12.0832 16.4341 10.9035 18.7254 10.1355 18.2664ZM19.4257 15.6721C19.4182 15.5971 19.3507 14.7669 17.8732 14.8021C17.2574 14.7913 16.6418 14.8347 16.0335 14.9319C15.4439 14.3384 14.9364 13.6687 14.5245 12.9406C14.7838 12.1901 14.941 11.4081 14.9917 10.6156C14.97 9.71561 14.7547 9.19961 14.0647 9.20711C13.3747 9.21461 13.2742 9.81836 13.365 10.7169C13.4538 11.3207 13.6215 11.9102 13.8637 12.4704C13.8637 12.4704 13.545 13.4626 13.1235 14.4496C12.702 15.4366 12.414 15.9541 12.414 15.9541C11.6809 16.1925 10.9909 16.547 10.3702 17.0041C9.75225 17.5794 9.501 18.0211 9.8265 18.4629C10.107 18.8439 11.0887 18.9301 11.9662 17.7804C12.4317 17.1859 12.8576 16.5616 13.2412 15.9114C13.2412 15.9114 14.5792 15.5446 14.9955 15.4441C15.4117 15.3436 15.915 15.2641 15.915 15.2641C15.915 15.2641 17.1367 16.4934 18.315 16.4499C19.4932 16.4064 19.4362 15.7456 19.4287 15.6736" fill="#DD2025"/>
<path d="M17.9648 1.55859V5.96334H22.1896L17.9648 1.55859Z" fill="#909090"/>
<path d="M18.0234 1.5V5.90475H22.2482L18.0234 1.5Z" fill="#F4F4F4"/>
<path d="M6.73025 3.34337H5.75V6.94337H6.524V5.72987L6.695 5.73962C6.86048 5.73734 7.02445 5.70769 7.18025 5.65187C7.31722 5.60537 7.4431 5.53106 7.55 5.43362C7.6588 5.34145 7.74415 5.22474 7.799 5.09312C7.87493 4.87466 7.90182 4.64215 7.87775 4.41212C7.87347 4.24776 7.84466 4.08496 7.79225 3.92912C7.74502 3.81648 7.6748 3.71494 7.58608 3.63099C7.49735 3.54704 7.39208 3.48255 7.277 3.44162C7.17733 3.40452 7.074 3.37812 6.96875 3.36287C6.88965 3.34999 6.80964 3.34347 6.7295 3.34337M6.58775 5.06387H6.521V3.95387H6.6665C6.73039 3.94926 6.79449 3.95907 6.85407 3.98257C6.91366 4.00607 6.9672 4.04265 7.01075 4.08962C7.10099 4.21038 7.1492 4.35737 7.148 4.50812C7.148 4.69262 7.148 4.85987 6.9815 4.97762C6.86158 5.04368 6.72502 5.07339 6.5885 5.06312M9.341 3.33362C9.25775 3.33362 9.17675 3.33962 9.11975 3.34187L8.9435 3.34637H8.3585V6.94637H9.047C9.31009 6.95314 9.57197 6.90856 9.818 6.81512C10.0161 6.73689 10.1914 6.61029 10.328 6.44687C10.4618 6.28274 10.5574 6.09083 10.6077 5.88512C10.6669 5.65257 10.6956 5.41332 10.6932 5.17337C10.7079 4.88999 10.686 4.60589 10.628 4.32812C10.5725 4.12389 10.4697 3.93557 10.328 3.77837C10.2168 3.65125 10.0801 3.54903 9.92675 3.47837C9.79537 3.41747 9.65712 3.37265 9.515 3.34487C9.45848 3.33561 9.40126 3.33134 9.344 3.33212M9.2075 6.28487H9.1325V3.98687H9.14225C9.29687 3.96899 9.45334 3.9969 9.59225 4.06712C9.694 4.14837 9.7769 4.25072 9.83525 4.36712C9.89822 4.48962 9.93451 4.62408 9.94175 4.76162C9.9485 4.92662 9.94175 5.06162 9.94175 5.17337C9.94452 5.30209 9.93624 5.43082 9.917 5.55812C9.8934 5.68867 9.8507 5.81503 9.79025 5.93312C9.72196 6.04325 9.6287 6.13575 9.518 6.20312C9.42553 6.26312 9.3159 6.29106 9.206 6.28262M13.0138 3.34637H11.1912V6.94637H11.9622V5.51837H12.9372V4.84937H11.9622V4.01537H13.0122V3.34637" fill="white"/>
</svg>
