<?xml version="1.0" encoding="iso-8859-1"?>
<!-- Uploaded to: SVG Repo, www.svgrepo.com, Generator: SVG Repo Mixer Tools -->
<svg fill="#000000" height="800px" width="800px" version="1.1" id="Layer_1" xmlns="http://www.w3.org/2000/svg" xmlns:xlink="http://www.w3.org/1999/xlink" 
	 viewBox="0 0 512 512" xml:space="preserve">
<g>
	<g>
		<path d="M296.584,446.171h-0.137c-5.771,0-10.449,4.678-10.449,10.449c0,5.771,4.678,10.449,10.449,10.449h0.137
			c5.771,0,10.449-4.678,10.449-10.449C307.033,450.849,302.355,446.171,296.584,446.171z"/>
	</g>
</g>
<g>
	<g>
		<path d="M369.59,446.171h-39.203c-5.771,0-10.449,4.678-10.449,10.449c0,5.771,4.678,10.449,10.449,10.449h39.203
			c5.771,0,10.449-4.678,10.449-10.449C380.039,450.849,375.361,446.171,369.59,446.171z"/>
	</g>
</g>
<g>
	<g>
		<path d="M10.586,491.102h-0.137C4.678,491.102,0,495.78,0,501.551S4.678,512,10.449,512h0.137c5.771,0,10.449-4.678,10.449-10.449
			S16.357,491.102,10.586,491.102z"/>
	</g>
</g>
<g>
	<g>
		<path d="M501.551,491.102h-0.137c-5.771,0-10.449,4.678-10.449,10.449S495.643,512,501.414,512h0.137
			c5.771,0,10.449-4.678,10.449-10.449S507.322,491.102,501.551,491.102z"/>
	</g>
</g>
<g>
	<g>
		<path d="M294.106,212.114c-6.441,0-11.68,5.239-11.68,11.68c0,6.44,5.239,11.679,11.68,11.679s11.68-5.239,11.68-11.679
			C305.786,217.353,300.547,212.114,294.106,212.114z"/>
	</g>
</g>
<g>
	<g>
		<path d="M217.894,212.114c-6.441,0-11.68,5.239-11.68,11.68c0,6.44,5.239,11.679,11.68,11.679c6.44,0,11.679-5.239,11.68-11.679
			C229.573,217.353,224.334,212.114,217.894,212.114z"/>
	</g>
</g>
<g>
	<g>
		<path d="M266.255,261.345h-20.422c-5.771,0-10.449,4.678-10.449,10.449c0,11.391,9.268,20.66,20.66,20.66
			s20.659-9.267,20.66-20.66C276.704,266.023,272.026,261.345,266.255,261.345z"/>
	</g>
</g>
<g>
	<g>
		<path d="M304.33,114.37c-13.406-11.666-30.568-18.091-48.329-18.091s-34.923,6.424-48.329,18.091
			c-4.354,3.789-4.811,10.388-1.023,14.741c3.788,4.354,10.388,4.811,14.741,1.023c9.602-8.356,21.893-12.958,34.609-12.958
			s25.008,4.602,34.609,12.958c1.979,1.723,4.423,2.567,6.856,2.567c2.918,0,5.82-1.215,7.888-3.59
			C309.14,124.759,308.683,118.159,304.33,114.37z"/>
	</g>
</g>
<g>
	<g>
		<path d="M290.6,142.997c-9.597-8.353-21.885-12.953-34.6-12.953c-12.714,0-25.002,4.6-34.6,12.953
			c-4.354,3.789-4.811,10.388-1.023,14.741c3.788,4.354,10.388,4.812,14.741,1.023c5.794-5.042,13.21-7.818,20.881-7.818
			s15.087,2.776,20.881,7.818c1.979,1.723,4.422,2.567,6.855,2.567c2.918,0,5.821-1.215,7.887-3.59
			C295.41,153.386,294.954,146.785,290.6,142.997z"/>
	</g>
</g>
<g>
	<g>
		<path d="M495.333,319.008H418.01c-5.771,0-10.449,4.678-10.449,10.449c0,5.771,4.678,10.449,10.449,10.449h5.232v113.721
			c0,8.954,3.472,17.371,9.777,23.706c6.316,6.345,14.719,9.84,23.662,9.84c8.942,0,17.344-3.494,23.661-9.84
			c6.304-6.333,9.775-14.752,9.775-23.705V339.906h5.217c5.771,0,10.449-4.678,10.449-10.449
			C505.783,323.686,501.104,319.008,495.333,319.008z M469.218,453.63c0,3.389-1.309,6.571-3.689,8.961
			c-2.366,2.376-5.508,3.684-8.849,3.684c-3.342,0-6.486-1.308-8.851-3.685c-2.378-2.39-3.688-5.571-3.688-8.96V339.906h25.078
			V453.63z"/>
	</g>
</g>
<g>
	<g>
		<path d="M456.672,213.89c-6.337,0-11.494,5.157-11.494,11.494c0,6.337,5.157,11.494,11.494,11.494
			c6.337,0,11.494-5.157,11.494-11.494C468.165,219.046,463.009,213.89,456.672,213.89z"/>
	</g>
</g>
<g>
	<g>
		<path d="M486.976,248.241c-8.067,0-14.629,6.562-14.629,14.629c0,8.067,6.562,14.629,14.629,14.629
			c8.067,0,14.629-6.562,14.629-14.629C501.604,254.803,495.042,248.241,486.976,248.241z"/>
	</g>
</g>
<g>
	<g>
		<path d="M442.67,285.635c-6.337,0-11.494,5.157-11.494,11.494c0,6.337,5.157,11.494,11.494,11.494
			c6.337,0,11.494-5.157,11.494-11.494C454.164,290.792,449.007,285.635,442.67,285.635z"/>
	</g>
</g>
<g>
	<g>
		<path d="M55.431,180.616c-6.337,0-11.494,5.157-11.494,11.494c0,6.337,5.157,11.494,11.494,11.494
			c6.337,0,11.494-5.157,11.494-11.494C66.925,185.772,61.768,180.616,55.431,180.616z"/>
	</g>
</g>
<g>
	<g>
		<path d="M22.778,142.454c-6.337,0-11.494,5.157-11.494,11.494c0,6.337,5.157,11.494,11.494,11.494
			c6.337,0,11.494-5.157,11.494-11.494C34.272,147.611,29.115,142.454,22.778,142.454z"/>
	</g>
</g>
<g>
	<g>
		<path d="M54.386,110.746c-6.337,0-11.494,5.157-11.494,11.494c0,6.337,5.157,11.494,11.494,11.494
			c6.337,0,11.494-5.157,11.494-11.494C65.88,115.902,60.723,110.746,54.386,110.746z"/>
	</g>
</g>
<g>
	<g>
		<path d="M70.206,39.149l3.692-3.692c4.082-4.081,4.082-10.698,0.002-14.778s-10.697-4.08-14.778,0l-3.692,3.692l-3.692-3.692
			c-4.08-4.08-10.697-4.08-14.778,0c-4.08,4.08-4.08,10.697,0,14.778l3.692,3.692l-3.692,3.692c-4.08,4.08-4.08,10.697,0,14.778
			c2.041,2.041,4.715,3.06,7.388,3.06s5.349-1.02,7.388-3.06l3.692-3.692l3.692,3.692c2.041,2.041,4.715,3.06,7.388,3.06
			s5.349-1.02,7.388-3.06c4.08-4.08,4.08-10.697,0-14.778L70.206,39.149z"/>
	</g>
</g>
<g>
	<g>
		<path d="M383.603,309.58c-3.835-3.835-9.909-4.064-14.013-0.691c-4.104-3.374-10.178-3.145-14.013,0.691
			c-3.835,3.835-4.064,9.908-0.691,14.013c-3.373,4.104-3.145,10.177,0.691,14.013c2.041,2.041,4.715,3.06,7.388,3.06
			c2.352,0,4.704-0.791,6.625-2.37c1.921,1.579,4.273,2.37,6.625,2.37c2.674,0,5.349-1.021,7.388-3.06
			c3.835-3.835,4.064-9.908,0.691-14.013C387.667,319.489,387.438,313.416,383.603,309.58z"/>
	</g>
</g>
<g>
	<g>
		<path d="M92.411,285.461v-40.886c3.038-1.828,5.077-5.146,5.077-8.951c0-5.771-4.678-10.449-10.449-10.449H35.841
			c-5.771,0-10.449,4.678-10.449,10.449c0,3.802,2.038,7.121,5.074,8.948v40.889c-18.678,10.921-30.415,31.039-30.415,53
			c0,33.851,27.538,61.389,61.389,61.389s61.389-27.538,61.389-61.389C122.829,316.499,111.09,296.381,92.411,285.461z
			 M61.44,378.953c-18.276,0-33.755-12.174-38.774-28.837c5.469-2.569,15.616-5.431,30.46-2.074c2.255,0.51,4.411,1.004,6.474,1.479
			c15.922,3.653,27.897,6.401,38.964,5.083C92.316,368.919,78.031,378.953,61.44,378.953z M64.273,329.151
			c-2.085-0.479-4.26-0.978-6.537-1.492c-14.779-3.344-26.605-2.173-35.38,0.328c3.134-11.668,11.378-21.56,22.776-26.586
			c3.789-1.671,6.234-5.421,6.234-9.561v-45.766h20.148v45.765c0,4.141,2.445,7.891,6.234,9.561
			c12.837,5.659,21.703,17.481,23.737,31.074C93.555,335.602,84.761,333.852,64.273,329.151z"/>
	</g>
</g>
<g>
	<g>
		<path d="M467.61,491.102h-57.97v-70.651c0-20.367-12.292-39.713-29.891-47.047l-67.247-28.019
			c-2.391-0.996-3.936-3.313-3.936-5.905V323.21l27.313-15.661c0.19-0.109,0.377-0.225,0.561-0.346
			c13.676-9.031,22.656-25.093,24.022-42.965c0.021-0.264,0.03-0.531,0.03-0.796v-8.675c9.463-3.078,17.098-10.225,20.859-19.36
			c31.41-3.901,55.806-30.741,55.806-63.189c0-14.561-5.029-28.645-14.037-39.88c6.002-8.919,9.229-19.414,9.229-30.375
			c0-30.087-24.478-54.566-54.566-54.566c-0.566,0-1.133,0.008-1.699,0.026c-4.478-20.103-22.457-35.179-43.89-35.179
			c-9.037,0-17.779,2.729-25.141,7.697C293.293,7.162,275.263,0,256.184,0c-19.115,0-37.168,7.184-50.932,20.005
			c-7.38-5.008-16.152-7.758-25.233-7.758c-21.433,0-39.411,15.076-43.89,35.179c-0.566-0.018-1.132-0.026-1.699-0.026
			c-30.088,0-54.566,24.478-54.566,54.566c0,10.961,3.227,21.456,9.229,30.375c-9.008,11.234-14.037,25.319-14.037,39.88
			c0,32.37,24.282,59.162,55.585,63.161c3.757,9.148,11.398,16.308,20.87,19.389v8.675c0,0.265,0.01,0.532,0.03,0.796
			c1.372,17.945,10.289,34.006,23.854,42.965c0.187,0.123,0.378,0.24,0.573,0.352l27.469,15.704v16.221
			c0,2.59-1.545,4.908-3.936,5.905l-67.249,28.02c-17.599,7.334-29.89,26.679-29.89,47.045v70.65H44.39
			c-5.771,0-10.449,4.678-10.449,10.449S38.619,512,44.39,512H467.61c5.771,0,10.449-4.678,10.449-10.449
			S473.381,491.102,467.61,491.102z M339.592,195.457c-8.626-10.628-21.782-17.437-36.506-17.437h-94.071
			c-14.782,0-27.984,6.865-36.607,17.567v-24.118c0.239-0.878,0.368-1.802,0.368-2.756c0-45.991,37.417-83.408,83.408-83.408
			s83.408,37.417,83.408,83.408V195.457z M329.194,225.024c0,14.396-11.711,26.107-26.107,26.107
			c-14.396,0-26.107-11.711-26.107-26.107c0-5.771-4.678-10.449-10.449-10.449h-20.96c-5.771,0-10.449,4.678-10.449,10.449
			c0,14.396-11.711,26.107-26.107,26.107c-14.396,0-26.107-11.711-26.107-26.107c0-14.396,11.711-26.107,26.107-26.107h94.071
			C317.482,198.917,329.194,210.628,329.194,225.024z M350.041,235.519c-0.393,0-0.78,0.026-1.161,0.068
			c0.784-3.398,1.212-6.931,1.212-10.564c0-5.533-0.969-10.843-2.732-15.777c0.857,0.228,1.752,0.361,2.681,0.361
			c7.144,0,12.956,5.813,12.956,12.956C362.997,229.705,357.185,235.519,350.041,235.519z M163.226,235.604
			c-0.416-0.05-0.837-0.085-1.266-0.085c-7.144,0-12.956-5.813-12.956-12.956c0-7.143,5.813-12.956,12.956-12.956
			c0.969,0,1.903-0.142,2.793-0.389c-1.77,4.942-2.742,10.262-2.742,15.806C162.01,228.662,162.44,232.2,163.226,235.604z
			 M151.918,165.814c-0.265,0.919-0.408,1.892-0.408,2.897v21.647c-10.875,3.537-19.338,12.447-22.275,23.577
			c-19.032-4.341-33.282-21.392-33.282-41.718c0-12.022,5.103-23.561,14.001-31.659c2.098-1.911,3.33-4.592,3.412-7.429
			s-0.996-5.584-2.982-7.611c-6.205-6.333-9.622-14.699-9.622-23.554c0-18.565,15.103-33.668,33.668-33.668
			c2.881,0,5.745,0.366,8.511,1.086c3.235,0.84,6.68,0.085,9.264-2.038s3.997-5.353,3.799-8.69c-0.028-0.479-0.048-0.96-0.048-1.446
			c0-13.269,10.796-24.064,24.064-24.064c6.934,0,13.537,3.003,18.116,8.239c2.033,2.325,5.005,3.629,8.078,3.568
			c3.088-0.064,5.989-1.489,7.927-3.894c10.314-12.812,25.639-20.159,42.045-20.159c16.368,0,31.67,7.318,41.982,20.079
			c1.935,2.394,4.827,3.813,7.905,3.879c3.07,0.077,6.027-1.23,8.062-3.539c4.576-5.194,11.157-8.172,18.059-8.172
			c13.269,0,24.064,10.795,24.064,24.064c0,0.486-0.021,0.968-0.048,1.446c-0.198,3.337,1.215,6.568,3.799,8.69
			c2.584,2.122,6.026,2.879,9.264,2.038c2.766-0.72,5.63-1.086,8.511-1.086c18.565,0,33.668,15.103,33.668,33.668
			c0,8.855-3.418,17.221-9.622,23.554c-1.985,2.027-3.063,4.774-2.981,7.611s1.312,5.518,3.412,7.429
			c8.898,8.098,14.001,19.638,14.001,31.659c0,20.397-14.347,37.498-33.477,41.765c-2.926-11.152-11.398-20.082-22.289-23.624
			v-21.647c0-57.514-46.792-104.306-104.306-104.306C199.638,64.405,153.457,109.634,151.918,165.814z M186.654,289.592
			c-7.985-5.405-13.285-15.292-14.246-26.571v-8.56c8.624,10.702,21.826,17.567,36.607,17.567c22.329,0,41.071-15.648,45.834-36.556
			h2.402c4.764,20.907,23.506,36.556,45.834,36.556c14.723,0,27.88-6.809,36.506-17.437v8.428
			c-0.949,11.05-6.443,21.176-14.42,26.577l-56.101,32.167c-0.191,0.11-0.377,0.225-0.561,0.346c-7.832,5.173-17.185,5.174-25.02,0
			c-0.187-0.123-0.377-0.241-0.573-0.352L186.654,289.592z M123.258,491.102v-70.651c0-11.777,7.322-23.71,17.031-27.756
			l60.536-25.223l10.244,65.851c0.598,3.842,3.28,7.035,6.962,8.287c1.1,0.374,2.236,0.556,3.361,0.556
			c2.642,0,5.234-1.002,7.208-2.883l17.001-16.192v68.01H123.258z M224.166,381.551L241.1,398.52l-12.45,11.857L224.166,381.551z
			 M222.216,350.012c1.365-3.271,2.118-6.833,2.118-10.532v-4.275l7.939,4.538c7.334,4.764,15.531,7.145,23.728,7.145
			c8.199,0,16.398-2.383,23.733-7.149l7.933-4.548v4.288c0,3.726,0.765,7.312,2.148,10.603l-33.764,33.834L222.216,350.012z
			 M287.936,381.551l-4.485,28.826l-12.45-11.857L287.936,381.551z M388.742,491.102H266.5v-68.01l17,16.192
			c1.975,1.88,4.566,2.883,7.208,2.883c1.126,0,2.261-0.182,3.361-0.556c3.681-1.252,6.363-4.444,6.962-8.287l10.238-65.811
			l60.441,25.183c9.709,4.046,17.031,15.978,17.031,27.756V491.102z"/>
	</g>
</g>
</svg>