<svg width="20" height="20" viewBox="0 0 20 20" fill="none" xmlns="http://www.w3.org/2000/svg">
<path d="M19 6V14C19 15.3261 18.4732 16.5979 17.5355 17.5355C16.5979 18.4732 15.3261 19 14 19H6C4.67392 19 3.40215 18.4732 2.46447 17.5355C1.52678 16.5979 1 15.3261 1 14V6C1 4.67392 1.52678 3.40215 2.46447 2.46447C3.40215 1.52678 4.67392 1 6 1H14C15.3261 1 16.5979 1.52678 17.5355 2.46447C18.4732 3.40215 19 4.67392 19 6Z" stroke="#0C4654" stroke-width="1.5" stroke-linecap="round" stroke-linejoin="round"/>
<path d="M11.9 16H8.1C7.94087 16 7.78826 15.9368 7.67574 15.8243C7.56321 15.7117 7.5 15.5591 7.5 15.4V13.1C7.5 12.9409 7.43679 12.7883 7.32426 12.6757C7.21174 12.5632 7.05913 12.5 6.9 12.5H4.6C4.44087 12.5 4.28826 12.4368 4.17574 12.3243C4.06321 12.2117 4 12.0591 4 11.9V8.1C4 7.94087 4.06321 7.78826 4.17574 7.67574C4.28826 7.56321 4.44087 7.5 4.6 7.5H6.9C7.05913 7.5 7.21174 7.43679 7.32426 7.32426C7.43679 7.21174 7.5 7.05913 7.5 6.9V4.6C7.5 4.44087 7.56321 4.28826 7.67574 4.17574C7.78826 4.06321 7.94087 4 8.1 4H11.9C12.0591 4 12.2117 4.06321 12.3243 4.17574C12.4368 4.28826 12.5 4.44087 12.5 4.6V6.9C12.5 7.05913 12.5632 7.21174 12.6757 7.32426C12.7883 7.43679 12.9409 7.5 13.1 7.5H15.4C15.5591 7.5 15.7117 7.56321 15.8243 7.67574C15.9368 7.78826 16 7.94087 16 8.1V11.9C16 12.0591 15.9368 12.2117 15.8243 12.3243C15.7117 12.4368 15.5591 12.5 15.4 12.5H13.1C12.9409 12.5 12.7883 12.5632 12.6757 12.6757C12.5632 12.7883 12.5 12.9409 12.5 13.1V15.4C12.5 15.5591 12.4368 15.7117 12.3243 15.8243C12.2117 15.9368 12.0591 16 11.9 16Z" stroke="#0C4654" stroke-width="1.5"/>
</svg>
