<svg width="24" height="24" viewBox="0 0 24 24" fill="none" xmlns="http://www.w3.org/2000/svg">
<path fill-rule="evenodd" clip-rule="evenodd" d="M6.00708 3.40718C7.68708 1.72718 10.5231 1.85518 11.6931 3.95118L12.3421 5.11418C13.1051 6.48218 12.7801 8.20918 11.6621 9.34118C11.596 9.44132 11.56 9.55824 11.5581 9.67818C11.5451 9.93418 11.6361 10.5272 12.5551 11.4452C13.4731 12.3632 14.0651 12.4552 14.3221 12.4422C14.442 12.4403 14.5589 12.4042 14.6591 12.3382C15.7901 11.2202 17.5181 10.8952 18.8861 11.6582L20.0491 12.3082C22.1451 13.4782 22.2731 16.3122 20.5931 17.9932C19.6941 18.8912 18.5001 19.6902 17.0951 19.7432C15.0151 19.8222 11.5591 19.2842 8.13708 15.8632C4.71608 12.4412 4.17808 8.98618 4.25708 6.90518C4.31008 5.50018 5.10908 4.30518 6.00708 3.40718ZM10.3831 4.68218C9.78308 3.60818 8.17308 3.36218 7.06808 4.46818C6.29308 5.24318 5.78808 6.09818 5.75608 6.96118C5.69008 8.69718 6.11908 11.7232 9.19808 14.8012C12.2781 17.8812 15.3031 18.3102 17.0381 18.2442C17.9011 18.2112 18.7581 17.7072 19.5321 16.9322C20.6381 15.8262 20.3921 14.2162 19.3181 13.6172L18.1551 12.9682C17.4321 12.5652 16.4151 12.7022 15.7021 13.4162C15.6321 13.4862 15.1861 13.9022 14.3951 13.9402C13.5851 13.9802 12.6041 13.6162 11.4951 12.5062C10.3841 11.3962 10.0201 10.4152 10.0601 9.60418C10.0981 8.81318 10.5151 8.36718 10.5841 8.29718C11.2981 7.58418 11.4351 6.56818 11.0321 5.84518L10.3831 4.68218Z" fill="#0C4654"/>
</svg>
