<svg width="12" height="11" viewBox="0 0 12 11" fill="none" xmlns="http://www.w3.org/2000/svg">
<path d="M8.09922 1.25C7.59922 0.75 6.94922 0.5 6.34922 0.5C5.74922 0.5 5.04922 0.75 4.59922 1.25L1.69922 4.05C0.699219 5.05 0.699219 6.6 1.69922 7.6C2.69922 8.6 4.24922 8.6 5.24922 7.6L8.09922 4.75C9.04922 3.8 9.04922 2.2 8.09922 1.25ZM7.39922 4.05L5.99922 5.45L4.19922 3.7L1.99922 5.9C1.99922 5.5 2.09922 5.05 2.44922 4.75L5.29922 1.9C5.54922 1.65 5.94922 1.5 6.29922 1.5C6.64922 1.5 7.04922 1.65 7.34922 1.9C7.94922 2.55 7.94922 3.45 7.39922 4.05ZM9.79922 3.05C9.79922 3.45 9.69922 3.8 9.59922 4.2C10.0992 4.8 10.0992 5.7 9.54922 6.25L8.14922 7.65L7.39922 6.9L5.99922 8.3C5.34922 8.95 4.44922 9.3 3.59922 9.3C3.69922 9.45 3.79922 9.6 3.94922 9.75C4.94922 10.75 6.49922 10.75 7.49922 9.75L10.3492 6.9C11.3492 5.9 11.3492 4.35 10.3492 3.35C10.0992 3.25 9.94922 3.15 9.79922 3.05Z" fill="#0C4654"/>
</svg>
