<svg width="20" height="20" viewBox="0 0 20 20" fill="none" xmlns="http://www.w3.org/2000/svg">
<path d="M18.5625 12.0625L16.6875 10.1875C16.4375 9.9375 16.0625 9.9375 15.8125 10.1875L10 16V18.75H12.75L18.5625 12.9375C18.8125 12.6875 18.8125 12.3125 18.5625 12.0625ZM12.25 17.5H11.25V16.5L14.375 13.375L15.375 14.375L12.25 17.5ZM16.25 13.5L15.25 12.5L16.25 11.5L17.25 12.5L16.25 13.5ZM6.25 14.375H7.5V15.625H6.25V14.375ZM8.75 11.25H11.25V12.5H8.75V11.25ZM6.25 11.25H7.5V12.5H6.25V11.25ZM8.75 8.125H13.75V9.375H8.75V8.125ZM6.25 8.125H7.5V9.375H6.25V8.125Z" fill="#0C4654"/>
<path d="M4.375 17.5V4.375H6.25V6.25H13.75V4.375H15.625V8.125H16.875V4.375C16.875 3.6875 16.3125 3.125 15.625 3.125H13.75V2.5C13.75 1.8125 13.1875 1.25 12.5 1.25H7.5C6.8125 1.25 6.25 1.8125 6.25 2.5V3.125H4.375C3.6875 3.125 3.125 3.6875 3.125 4.375V17.5C3.125 18.1875 3.6875 18.75 4.375 18.75H7.5V17.5H4.375ZM7.5 2.5H12.5V5H7.5V2.5Z" fill="#0C4654"/>
</svg>
