<svg width="9" height="10" viewBox="0 0 9 10" fill="none" xmlns="http://www.w3.org/2000/svg">
<path d="M7.08203 9.16658C6.73481 9.16658 6.43967 9.04506 6.19661 8.802C5.95356 8.55895 5.83203 8.26381 5.83203 7.91658C5.83203 7.87492 5.84245 7.7777 5.86328 7.62492L2.9362 5.91658C2.82509 6.02075 2.69661 6.10242 2.55078 6.16159C2.40495 6.22075 2.2487 6.2502 2.08203 6.24992C1.73481 6.24992 1.43967 6.12839 1.19661 5.88533C0.953559 5.64228 0.832031 5.34714 0.832031 4.99992C0.832031 4.6527 0.953559 4.35756 1.19661 4.1145C1.43967 3.87145 1.73481 3.74992 2.08203 3.74992C2.2487 3.74992 2.40495 3.7795 2.55078 3.83867C2.69661 3.89784 2.82509 3.97936 2.9362 4.08325L5.86328 2.37492C5.84939 2.32631 5.84078 2.2795 5.83745 2.2345C5.83411 2.1895 5.83231 2.13909 5.83203 2.08325C5.83203 1.73603 5.95356 1.44089 6.19661 1.19784C6.43967 0.95478 6.73481 0.833252 7.08203 0.833252C7.42925 0.833252 7.72439 0.95478 7.96745 1.19784C8.2105 1.44089 8.33203 1.73603 8.33203 2.08325C8.33203 2.43047 8.2105 2.72561 7.96745 2.96867C7.72439 3.21172 7.42925 3.33325 7.08203 3.33325C6.91536 3.33325 6.75911 3.30367 6.61328 3.2445C6.46745 3.18534 6.33898 3.10381 6.22786 2.99992L3.30078 4.70825C3.31467 4.75686 3.32342 4.80381 3.32703 4.84908C3.33064 4.89436 3.33231 4.94464 3.33203 4.99992C3.33175 5.0552 3.33009 5.10561 3.32703 5.15117C3.32398 5.19672 3.31523 5.24353 3.30078 5.29158L6.22786 6.99992C6.33898 6.89575 6.46745 6.81422 6.61328 6.75533C6.75911 6.69645 6.91536 6.66686 7.08203 6.66658C7.42925 6.66658 7.72439 6.78811 7.96745 7.03117C8.2105 7.27422 8.33203 7.56936 8.33203 7.91658C8.33203 8.26381 8.2105 8.55895 7.96745 8.802C7.72439 9.04506 7.42925 9.16658 7.08203 9.16658ZM7.08203 8.33325C7.20009 8.33325 7.29911 8.29339 7.37911 8.21367C7.45911 8.13395 7.49898 8.03492 7.4987 7.91658C7.49842 7.79825 7.45842 7.69936 7.3787 7.61992C7.29898 7.54047 7.20009 7.50047 7.08203 7.49992C6.96398 7.49936 6.86509 7.53936 6.78536 7.61992C6.70564 7.70047 6.66564 7.79936 6.66536 7.91658C6.66509 8.03381 6.70509 8.13283 6.78536 8.21367C6.86564 8.2945 6.96453 8.33436 7.08203 8.33325ZM2.08203 5.41658C2.20009 5.41658 2.29911 5.37659 2.37911 5.29659C2.45911 5.21659 2.49898 5.1177 2.4987 4.99992C2.49842 4.88214 2.45842 4.78325 2.3787 4.70325C2.29898 4.62325 2.20009 4.58325 2.08203 4.58325C1.96398 4.58325 1.86509 4.62325 1.78536 4.70325C1.70564 4.78325 1.66564 4.88214 1.66536 4.99992C1.66509 5.1177 1.70509 5.21672 1.78536 5.297C1.86564 5.37728 1.96453 5.41714 2.08203 5.41658ZM7.08203 2.49992C7.20009 2.49992 7.29911 2.45992 7.37911 2.37992C7.45911 2.29992 7.49898 2.20103 7.4987 2.08325C7.49842 1.96547 7.45842 1.86659 7.3787 1.78659C7.29898 1.70659 7.20009 1.66659 7.08203 1.66659C6.96398 1.66659 6.86509 1.70659 6.78536 1.78659C6.70564 1.86659 6.66564 1.96547 6.66536 2.08325C6.66509 2.20103 6.70509 2.30006 6.78536 2.38034C6.86564 2.46061 6.96453 2.50047 7.08203 2.49992Z" fill="#0C4654"/>
</svg>
