<svg width="18" height="17" viewBox="0 0 18 17" fill="none" xmlns="http://www.w3.org/2000/svg">
<path d="M3.3285 0.5L3.117 0.8525C3.117 0.8525 0.75 4.739 0.75 11V11.75H5.3205C5.27189 11.997 5.24827 12.2483 5.25 12.5C5.25 14.5625 6.9375 16.25 9 16.25C11.0625 16.25 12.75 14.5625 12.75 12.5C12.75 12.242 12.7297 11.9937 12.6795 11.75H17.25V11C17.25 7.5425 16.668 5.0075 16.0778 3.335C15.4882 1.664 14.859 0.8045 14.859 0.8045L14.625 0.5H3.3285ZM4.242 2H13.782C13.8907 2.156 14.2118 2.549 14.6715 3.8525C15.159 5.2325 15.5955 7.4 15.6795 10.25H12C11.3138 9.3425 10.218 8.75 9 8.75C7.782 8.75 6.68625 9.3425 6 10.25H2.3205C2.4915 5.2625 3.9945 2.4275 4.242 2ZM8.25 3.5V5H6.75V6.5H8.25V8H9.75V6.5H11.25V5H9.75V3.5H8.25ZM9 10.25C10.2525 10.25 11.25 11.2475 11.25 12.5C11.25 13.7525 10.2525 14.75 9 14.75C7.7475 14.75 6.75 13.7525 6.75 12.5C6.75 11.2475 7.7475 10.25 9 10.25ZM9 11.75C8.80109 11.75 8.61032 11.829 8.46967 11.9697C8.32902 12.1103 8.25 12.3011 8.25 12.5C8.25 12.6989 8.32902 12.8897 8.46967 13.0303C8.61032 13.171 8.80109 13.25 9 13.25C9.19891 13.25 9.38968 13.171 9.53033 13.0303C9.67098 12.8897 9.75 12.6989 9.75 12.5C9.75 12.3011 9.67098 12.1103 9.53033 11.9697C9.38968 11.829 9.19891 11.75 9 11.75Z" fill="#0C4654"/>
</svg>
