<svg width="20" height="22" viewBox="0 0 20 22" fill="none" xmlns="http://www.w3.org/2000/svg">
<path d="M5.99809 15H9.99809M5.99809 10H13.9981M5.50009 2.5C3.94409 2.547 3.01709 2.72 2.37509 3.362C1.49609 4.242 1.49609 5.657 1.49609 8.488V14.994C1.49609 17.826 1.49609 19.241 2.37509 20.121C3.25309 21 4.66809 21 7.49609 21H12.4961C15.3251 21 16.7391 21 17.6171 20.12C18.4971 19.241 18.4971 17.826 18.4971 14.994V8.488C18.4971 5.658 18.4971 4.242 17.6171 3.362C16.9761 2.72 16.0481 2.547 14.4921 2.5" stroke="#3A966C" stroke-opacity="0.7" stroke-width="1.5" stroke-linecap="round" stroke-linejoin="round"/>
<path d="M5.49609 2.75C5.49609 1.784 6.28009 1 7.24609 1H12.7461C13.2102 1 13.6553 1.18437 13.9835 1.51256C14.3117 1.84075 14.4961 2.28587 14.4961 2.75C14.4961 3.21413 14.3117 3.65925 13.9835 3.98744C13.6553 4.31563 13.2102 4.5 12.7461 4.5H7.24609C6.78197 4.5 6.33685 4.31563 6.00866 3.98744C5.68047 3.65925 5.49609 3.21413 5.49609 2.75Z" stroke="#3A966C" stroke-opacity="0.7" stroke-width="1.5" stroke-linecap="round" stroke-linejoin="round"/>
</svg>
