<svg width="18" height="18" viewBox="0 0 18 18" fill="none" xmlns="http://www.w3.org/2000/svg">
<path fill-rule="evenodd" clip-rule="evenodd" d="M9 2.0625C7.16006 2.0625 5.39548 2.79341 4.09445 4.09445C2.79341 5.39548 2.0625 7.16006 2.0625 9C2.0625 10.8399 2.79341 12.6045 4.09445 13.9056C5.39548 15.2066 7.16006 15.9375 9 15.9375C10.8399 15.9375 12.6045 15.2066 13.9056 13.9056C15.2066 12.6045 15.9375 10.8399 15.9375 9C15.9375 7.16006 15.2066 5.39548 13.9056 4.09445C12.6045 2.79341 10.8399 2.0625 9 2.0625ZM0.9375 9C0.9375 4.54725 4.54725 0.9375 9 0.9375C13.4528 0.9375 17.0625 4.54725 17.0625 9C17.0625 13.4528 13.4528 17.0625 9 17.0625C4.54725 17.0625 0.9375 13.4528 0.9375 9ZM9 5.4375C9.14918 5.4375 9.29226 5.49676 9.39775 5.60225C9.50324 5.70774 9.5625 5.85082 9.5625 6V8.7675L11.2725 10.4775C11.3278 10.529 11.3721 10.5911 11.4028 10.6601C11.4336 10.7291 11.4501 10.8036 11.4514 10.8791C11.4528 10.9546 11.4389 11.0297 11.4106 11.0997C11.3823 11.1697 11.3402 11.2334 11.2868 11.2868C11.2334 11.3402 11.1697 11.3823 11.0997 11.4106C11.0297 11.4389 10.9546 11.4528 10.8791 11.4514C10.8036 11.4501 10.7291 11.4336 10.6601 11.4028C10.5911 11.3721 10.529 11.3278 10.4775 11.2725L8.6025 9.3975C8.49698 9.29211 8.43763 9.14913 8.4375 9V6C8.4375 5.85082 8.49676 5.70774 8.60225 5.60225C8.70774 5.49676 8.85082 5.4375 9 5.4375Z" fill="#0C4654"/>
</svg>
