<svg width="25" height="24" viewBox="0 0 25 24" fill="none" xmlns="http://www.w3.org/2000/svg">
<path d="M23 5.25C21.9148 5.25 21.0852 5.25 20 5.25V3H21.5C21.9148 3 22.25 2.664 22.25 2.25C22.25 1.836 21.9148 1.5 21.5 1.5H17C16.5853 1.5 16.25 1.836 16.25 2.25C16.25 2.664 16.5853 3 17 3H18.5V5.25C17.4148 5.25 16.5853 5.25 15.5 5.25C15.0853 5.25 14.75 5.586 14.75 6C14.75 6.414 15.0853 6.75 15.5 6.75H16.25V15.75C16.25 17.1435 17.2092 18.3083 18.5 18.6435V21.75C18.5 22.164 18.8352 22.5 19.25 22.5C19.6648 22.5 20 22.164 20 21.75V18.6435C21.2908 18.3083 22.25 17.1435 22.25 15.75V6.75H23C23.4148 6.75 23.75 6.414 23.75 6C23.75 5.586 23.4148 5.25 23 5.25ZM20.75 15.75C20.75 16.5773 20.0773 17.25 19.25 17.25C18.4227 17.25 17.75 16.5773 17.75 15.75H18.5C18.9148 15.75 19.25 15.414 19.25 15C19.25 14.586 18.9148 14.25 18.5 14.25H17.75V12.75H18.5C18.9148 12.75 19.25 12.414 19.25 12C19.25 11.586 18.9148 11.25 18.5 11.25H17.75V9.75H18.5C18.9148 9.75 19.25 9.414 19.25 9C19.25 8.586 18.9148 8.25 18.5 8.25H17.75V6.75H20.75V15.75Z" fill="#8894A7"/>
<path d="M2 15V21.75C2 22.164 2.33525 22.5 2.75 22.5H13.25C13.6648 22.5 14 22.164 14 21.75V15C14 12.774 12.3755 10.9208 10.25 10.5623V9H11C11.4148 9 11.75 8.664 11.75 8.25V5.25C11.75 4.836 11.4148 4.5 11 4.5H5C4.58525 4.5 4.25 4.836 4.25 5.25V8.25C4.25 8.664 4.58525 9 5 9H5.75V10.5623C3.6245 10.9208 2 12.774 2 15ZM5.75 6H10.25V7.5C8.615 7.5 7.31 7.5 5.75 7.5V6ZM6.5 12C6.91475 12 7.25 11.664 7.25 11.25V9H8.75V11.25C8.75 11.664 9.08525 12 9.5 12C11.1545 12 12.5 13.3455 12.5 15V21H3.5V15C3.5 13.3455 4.8455 12 6.5 12Z" fill="#8894A7"/>
<path d="M5 16.5C5 16.086 5.33525 15.75 5.75 15.75H7.25V14.25C7.25 13.836 7.58525 13.5 8 13.5C8.41475 13.5 8.75 13.836 8.75 14.25V15.75H10.25C10.6648 15.75 11 16.086 11 16.5C11 16.914 10.6648 17.25 10.25 17.25H8.75V18.75C8.75 19.164 8.41475 19.5 8 19.5C7.58525 19.5 7.25 19.164 7.25 18.75V17.25H5.75C5.33525 17.25 5 16.914 5 16.5Z" fill="#8894A7"/>
</svg>
