<svg width="16" height="14" viewBox="0 0 16 14" fill="none" xmlns="http://www.w3.org/2000/svg">
<path fill-rule="evenodd" clip-rule="evenodd" d="M14.4471 4.16946C14.407 4.16709 14.3643 4.16615 14.3189 4.16662H12.5304C11.0655 4.16662 9.8125 5.31979 9.8125 6.82287C9.8125 8.32596 11.0662 9.47912 12.5304 9.47912H14.3189C14.3643 9.47959 14.4072 9.47865 14.4478 9.47629C14.7489 9.45814 15.0331 9.33115 15.2475 9.11899C15.4618 8.90684 15.5918 8.62398 15.613 8.32312C15.6159 8.28062 15.6159 8.23458 15.6159 8.19208V5.45366C15.6159 5.41116 15.6159 5.36512 15.613 5.32262C15.5918 5.02177 15.4618 4.73891 15.2475 4.52675C15.0331 4.31459 14.7482 4.18761 14.4471 4.16946ZM12.3738 7.53121C12.7507 7.53121 13.056 7.21387 13.056 6.82287C13.056 6.43187 12.7507 6.11454 12.3738 6.11454C11.9963 6.11454 11.691 6.43187 11.691 6.82287C11.691 7.21387 11.9963 7.53121 12.3738 7.53121Z" fill="white"/>
<path fill-rule="evenodd" clip-rule="evenodd" d="M14.3182 10.5417C14.3427 10.5407 14.3671 10.5455 14.3894 10.5557C14.4116 10.5659 14.4312 10.5812 14.4465 10.6004C14.4617 10.6196 14.4722 10.6421 14.4771 10.6661C14.4821 10.6901 14.4812 10.7149 14.4748 10.7386C14.3331 11.2429 14.1071 11.6736 13.7452 12.0348C13.2146 12.5661 12.5424 12.8005 11.7123 12.9125C10.9048 13.0208 9.87414 13.0208 8.57222 13.0208H7.07622C5.7743 13.0208 4.74297 13.0208 3.93618 12.9125C3.10601 12.8005 2.4338 12.5654 1.90326 12.0355C1.37343 11.505 1.13826 10.8328 1.02634 10.0026C0.917969 9.19512 0.917969 8.1645 0.917969 6.86258V6.78325C0.917969 5.48133 0.917969 4.45 1.02634 3.6425C1.13826 2.81233 1.37343 2.14012 1.90326 1.60958C2.4338 1.07975 3.10601 0.844583 3.93618 0.732667C4.74368 0.625 5.7743 0.625 7.07622 0.625H8.57222C9.87414 0.625 10.9055 0.625 11.7123 0.733375C12.5424 0.845292 13.2146 1.08046 13.7452 1.61029C14.1071 1.97296 14.3331 2.40292 14.4748 2.90725C14.4812 2.93089 14.4821 2.95572 14.4771 2.97973C14.4722 3.00374 14.4617 3.02625 14.4465 3.04543C14.4312 3.06462 14.4116 3.07993 14.3894 3.09014C14.3671 3.10034 14.3427 3.10515 14.3182 3.10417H12.5304C10.5208 3.10417 8.75001 4.69083 8.75001 6.82292C8.75001 8.955 10.5208 10.5417 12.5304 10.5417H14.3182ZM3.57422 3.45833C3.43332 3.45833 3.2982 3.5143 3.19857 3.61393C3.09894 3.71356 3.04297 3.84869 3.04297 3.98958C3.04297 4.13048 3.09894 4.2656 3.19857 4.36523C3.2982 4.46486 3.43332 4.52083 3.57422 4.52083H6.40755C6.54845 4.52083 6.68357 4.46486 6.7832 4.36523C6.88283 4.2656 6.9388 4.13048 6.9388 3.98958C6.9388 3.84869 6.88283 3.71356 6.7832 3.61393C6.68357 3.5143 6.54845 3.45833 6.40755 3.45833H3.57422Z" fill="white"/>
</svg>
